FrauncesItalic-BlackOpMinGoofyMin.ufo
<glyph name="slash" format="2">
  <advance width="977"/>
  <unicode hex="002F"/>
  <outline>
    <contour>
      <point x="601" y="602" type="curve" smooth="yes"/>
      <point x="729" y="817"/>
      <point x="998" y="1246"/>
      <point x="1117" y="1454" type="curve" smooth="yes"/>
      <point x="1158" y="1518"/>
      <point x="1155" y="1564"/>
      <point x="1099" y="1585" type="curve" smooth="yes"/>
      <point x="1041" y="1607"/>
      <point x="989" y="1581"/>
      <point x="948" y="1519" type="curve" smooth="yes"/>
      <point x="836" y="1324"/>
      <point x="608" y="872"/>
      <point x="477" y="648" type="curve" smooth="yes"/>
      <point x="349" y="426"/>
      <point x="57" y="-4"/>
      <point x="-57" y="-201" type="curve" smooth="yes"/>
      <point x="-100" y="-265"/>
      <point x="-93" y="-311"/>
      <point x="-37" y="-332" type="curve" smooth="yes"/>
      <point x="18" y="-355"/>
      <point x="70" y="-330"/>
      <point x="111" y="-266" type="curve" smooth="yes"/>
      <point x="231" y="-55"/>
      <point x="474" y="384"/>
    </contour>
  </outline>
</glyph>
<glyph name="zero" format="2">
  <advance width="1420"/>
  <unicode hex="0030"/>
  <outline>
    <contour>
      <point x="969" y="1428" type="curve" smooth="yes"/>
      <point x="564" y="1428"/>
      <point x="234" y="1149"/>
      <point x="123" y="710" type="curve" smooth="yes"/>
      <point x="10" y="268"/>
      <point x="168" y="-26"/>
      <point x="580" y="-26" type="curve" smooth="yes"/>
      <point x="930" y="-26"/>
      <point x="1282" y="215"/>
      <point x="1407" y="699" type="curve" smooth="yes"/>
      <point x="1518" y="1132"/>
      <point x="1351" y="1428"/>
    </contour>
    <contour>
      <point x="943" y="697" type="curve" smooth="yes"/>
      <point x="841" y="284"/>
      <point x="715" y="101"/>
      <point x="612" y="101" type="curve" smooth="yes"/>
      <point x="473" y="101"/>
      <point x="475" y="252"/>
      <point x="592" y="733" type="curve" smooth="yes"/>
      <point x="680" y="1091"/>
      <point x="803" y="1300"/>
      <point x="919" y="1300" type="curve" smooth="yes"/>
      <point x="1058" y="1300"/>
      <point x="1050" y="1142"/>
    </contour>
  </outline>
</glyph>
<glyph name="six" format="2">
  <advance width="1320"/>
  <unicode hex="0036"/>
  <outline>
    <contour>
      <point x="1012" y="1434" type="curve" smooth="yes"/>
      <point x="615" y="1434"/>
      <point x="267" y="1174"/>
      <point x="137" y="723" type="curve" smooth="yes"/>
      <point x="9" y="276"/>
      <point x="158" y="-33"/>
      <point x="547" y="-33" type="curve" smooth="yes"/>
      <point x="898" y="-33"/>
      <point x="1160" y="126"/>
      <point x="1234" y="385" type="curve" smooth="yes"/>
      <point x="1319" y="681"/>
      <point x="1183" y="854"/>
      <point x="929" y="854" type="curve" smooth="yes"/>
      <point x="698" y="854"/>
      <point x="491" y="729"/>
      <point x="430" y="570" type="curve"/>
      <point x="491" y="534" type="line"/>
      <point x="541" y="638"/>
      <point x="639" y="702"/>
      <point x="724" y="702" type="curve" smooth="yes"/>
      <point x="819" y="702"/>
      <point x="861" y="607"/>
      <point x="806" y="390" type="curve" smooth="yes"/>
      <point x="753" y="188"/>
      <point x="678" y="89"/>
      <point x="583" y="89" type="curve" smooth="yes"/>
      <point x="484" y="89"/>
      <point x="440" y="201"/>
      <point x="568" y="658" type="curve" smooth="yes"/>
      <point x="700" y="1139"/>
      <point x="831" y="1312"/>
      <point x="939" y="1312" type="curve" smooth="yes"/>
      <point x="1010" y="1312"/>
      <point x="1033" y="1271"/>
      <point x="1012" y="1192" type="curve" smooth="yes"/>
      <point x="993" y="1125" type="line" smooth="yes"/>
      <point x="957" y="1003"/>
      <point x="1010" y="929"/>
      <point x="1150" y="929" type="curve" smooth="yes"/>
      <point x="1273" y="929"/>
      <point x="1376" y="1005"/>
      <point x="1404" y="1134" type="curve" smooth="yes"/>
      <point x="1437" y="1288"/>
      <point x="1304" y="1434"/>
    </contour>
  </outline>
</glyph>
<glyph name="eight" format="2">
  <advance width="1282"/>
  <unicode hex="0038"/>
  <outline>
    <contour>
      <point x="461" y="-32" type="curve" smooth="yes"/>
      <point x="849" y="-32"/>
      <point x="1113" y="131"/>
      <point x="1172" y="344" type="curve" smooth="yes"/>
      <point x="1227" y="533"/>
      <point x="1134" y="658"/>
      <point x="886" y="775" type="curve" smooth="yes"/>
      <point x="690" y="866"/>
      <point x="612" y="970"/>
      <point x="661" y="1140" type="curve" smooth="yes"/>
      <point x="693" y="1249"/>
      <point x="772" y="1327"/>
      <point x="878" y="1327" type="curve" smooth="yes"/>
      <point x="1003" y="1327"/>
      <point x="1034" y="1219"/>
      <point x="974" y="1029" type="curve" smooth="yes"/>
      <point x="938" y="916"/>
      <point x="858" y="801"/>
      <point x="772" y="729" type="curve"/>
      <point x="791" y="695" type="line"/>
      <point x="1074" y="705"/>
      <point x="1310" y="839"/>
      <point x="1366" y="1026" type="curve" smooth="yes"/>
      <point x="1441" y="1275"/>
      <point x="1275" y="1434"/>
      <point x="960" y="1434" type="curve" smooth="yes"/>
      <point x="547" y="1434"/>
      <point x="282" y="1223"/>
      <point x="227" y="1016" type="curve" smooth="yes"/>
      <point x="165" y="787"/>
      <point x="259" y="663"/>
      <point x="538" y="537" type="curve" smooth="yes"/>
      <point x="722" y="469"/>
      <point x="762" y="375"/>
      <point x="723" y="244" type="curve" smooth="yes"/>
      <point x="692" y="143"/>
      <point x="627" y="68"/>
      <point x="532" y="68" type="curve" smooth="yes"/>
      <point x="423" y="68"/>
      <point x="389" y="161"/>
      <point x="437" y="324" type="curve" smooth="yes"/>
      <point x="469" y="434"/>
      <point x="527" y="531"/>
      <point x="592" y="587" type="curve"/>
      <point x="601" y="614" type="line"/>
      <point x="305" y="614"/>
      <point x="88" y="493"/>
      <point x="40" y="332" type="curve" smooth="yes"/>
      <point x="-19" y="128"/>
      <point x="94" y="-32"/>
    </contour>
  </outline>
</glyph>
<glyph name="nine" format="2">
  <advance width="1306"/>
  <unicode hex="0039"/>
  <outline>
    <contour>
      <point x="432" y="-33" type="curve" smooth="yes"/>
      <point x="830" y="-33"/>
      <point x="1175" y="222"/>
      <point x="1303" y="670" type="curve" smooth="yes"/>
      <point x="1436" y="1133"/>
      <point x="1279" y="1434"/>
      <point x="896" y="1434" type="curve" smooth="yes"/>
      <point x="557" y="1434"/>
      <point x="275" y="1254"/>
      <point x="197" y="981" type="curve" smooth="yes"/>
      <point x="121" y="712"/>
      <point x="259" y="538"/>
      <point x="512" y="538" type="curve" smooth="yes"/>
      <point x="743" y="538"/>
      <point x="949" y="663"/>
      <point x="1010" y="821" type="curve"/>
      <point x="949" y="858" type="line"/>
      <point x="898" y="754"/>
      <point x="801" y="690"/>
      <point x="717" y="690" type="curve" smooth="yes"/>
      <point x="631" y="690"/>
      <point x="579" y="787"/>
      <point x="636" y="1007" type="curve" smooth="yes"/>
      <point x="690" y="1213"/>
      <point x="766" y="1312"/>
      <point x="860" y="1312" type="curve" smooth="yes"/>
      <point x="960" y="1312"/>
      <point x="997" y="1178"/>
      <point x="874" y="741" type="curve" smooth="yes"/>
      <point x="743" y="261"/>
      <point x="618" y="89"/>
      <point x="504" y="89" type="curve" smooth="yes"/>
      <point x="434" y="89"/>
      <point x="410" y="130"/>
      <point x="432" y="210" type="curve" smooth="yes"/>
      <point x="451" y="277" type="line" smooth="yes"/>
      <point x="486" y="399"/>
      <point x="433" y="473"/>
      <point x="294" y="473" type="curve" smooth="yes"/>
      <point x="170" y="473"/>
      <point x="68" y="397"/>
      <point x="40" y="268" type="curve" smooth="yes"/>
      <point x="7" y="113"/>
      <point x="139" y="-33"/>
    </contour>
  </outline>
</glyph>
<glyph name="C" format="2">
  <advance width="1356"/>
  <unicode hex="0043"/>
  <anchor x="977" y="1510" name="center"/>
  <outline>
    <contour>
      <point x="1243" y="479" type="curve"/>
      <point x="1205" y="493"/>
      <point x="1171" y="474"/>
      <point x="1119" y="422" type="curve" smooth="yes"/>
      <point x="1022" y="269"/>
      <point x="914" y="204"/>
      <point x="810" y="204" type="curve" smooth="yes"/>
      <point x="646" y="204"/>
      <point x="535" y="339"/>
      <point x="619" y="745" type="curve" smooth="yes"/>
      <point x="688" y="1082"/>
      <point x="838" y="1270"/>
      <point x="1002" y="1270" type="curve" smooth="yes"/>
      <point x="1117" y="1270"/>
      <point x="1193" y="1201"/>
      <point x="1243" y="1017" type="curve" smooth="yes"/>
      <point x="1260" y="959" type="line" smooth="yes"/>
      <point x="1276" y="912"/>
      <point x="1303" y="890"/>
      <point x="1346" y="890" type="curve" smooth="yes"/>
      <point x="1389" y="890"/>
      <point x="1422" y="911"/>
      <point x="1424" y="961" type="curve" smooth="yes"/>
      <point x="1443" y="1356" type="line" smooth="yes"/>
      <point x="1444" y="1400"/>
      <point x="1414" y="1426"/>
      <point x="1372" y="1426" type="curve" smooth="yes"/>
      <point x="1317" y="1426"/>
      <point x="1259" y="1341"/>
      <point x="1208" y="1341" type="curve" smooth="yes"/>
      <point x="1158" y="1341"/>
      <point x="1102" y="1428"/>
      <point x="925" y="1428" type="curve" smooth="yes"/>
      <point x="551" y="1428"/>
      <point x="204" y="1130"/>
      <point x="117" y="687" type="curve" smooth="yes"/>
      <point x="24" y="222"/>
      <point x="274" y="-26"/>
      <point x="641" y="-26" type="curve" smooth="yes"/>
      <point x="915" y="-26"/>
      <point x="1143" y="112"/>
      <point x="1250" y="345" type="curve" smooth="yes"/>
      <point x="1298" y="427"/>
      <point x="1275" y="467"/>
    </contour>
  </outline>
</glyph>
<glyph name="F" format="2">
  <advance width="1301"/>
  <unicode hex="0046"/>
  <outline>
    <contour>
      <point x="299" y="1323" type="curve" smooth="yes"/>
      <point x="299" y="1293"/>
      <point x="316" y="1277"/>
      <point x="344" y="1263" type="curve" smooth="yes"/>
      <point x="386" y="1248" type="line" smooth="yes"/>
      <point x="416" y="1236"/>
      <point x="419" y="1217"/>
      <point x="405" y="1160" type="curve" smooth="yes"/>
      <point x="378" y="1052"/>
      <point x="209" y="386"/>
      <point x="162" y="237" type="curve" smooth="yes"/>
      <point x="147" y="188"/>
      <point x="134" y="165"/>
      <point x="107" y="155" type="curve" smooth="yes"/>
      <point x="62" y="141" type="line" smooth="yes"/>
      <point x="29" y="127"/>
      <point x="5" y="100"/>
      <point x="5" y="65" type="curve" smooth="yes"/>
      <point x="5" y="28"/>
      <point x="21" y="0"/>
      <point x="84" y="0" type="curve" smooth="yes"/>
      <point x="660" y="0" type="line" smooth="yes"/>
      <point x="721" y="0"/>
      <point x="753" y="32"/>
      <point x="753" y="77" type="curve" smooth="yes"/>
      <point x="753" y="107"/>
      <point x="740" y="131"/>
      <point x="707" y="138" type="curve" smooth="yes"/>
      <point x="639" y="149" type="line" smooth="yes"/>
      <point x="588" y="160"/>
      <point x="592" y="184"/>
      <point x="607" y="238" type="curve" smooth="yes"/>
      <point x="636" y="353"/>
      <point x="830" y="1118"/>
      <point x="879" y="1274" type="curve"/>
      <point x="1005" y="1274" type="line" smooth="yes"/>
      <point x="1124" y="1274"/>
      <point x="1181" y="1219"/>
      <point x="1225" y="1068" type="curve" smooth="yes"/>
      <point x="1242" y="1017" type="line" smooth="yes"/>
      <point x="1268" y="956"/>
      <point x="1300" y="933"/>
      <point x="1349" y="940" type="curve" smooth="yes"/>
      <point x="1392" y="946"/>
      <point x="1415" y="975"/>
      <point x="1407" y="1026" type="curve" smooth="yes"/>
      <point x="1386" y="1356" type="line" smooth="yes"/>
      <point x="1378" y="1409"/>
      <point x="1347" y="1434"/>
      <point x="1301" y="1434" type="curve" smooth="yes"/>
      <point x="1249" y="1434"/>
      <point x="1199" y="1400"/>
      <point x="1108" y="1400" type="curve" smooth="yes"/>
      <point x="392" y="1400" type="line" smooth="yes"/>
      <point x="330" y="1400"/>
      <point x="299" y="1368"/>
    </contour>
    <contour>
      <point x="548" y="757" type="line"/>
      <point x="511" y="631" type="line"/>
      <point x="850" y="631" type="line" smooth="yes"/>
      <point x="958" y="631"/>
      <point x="1003" y="592"/>
      <point x="1040" y="504" type="curve" smooth="yes"/>
      <point x="1056" y="476"/>
      <point x="1076" y="457"/>
      <point x="1110" y="457" type="curve" smooth="yes"/>
      <point x="1155" y="458"/>
      <point x="1186" y="485"/>
      <point x="1177" y="545" type="curve" smooth="yes"/>
      <point x="1141" y="865" type="line" smooth="yes"/>
      <point x="1136" y="905"/>
      <point x="1114" y="930"/>
      <point x="1072" y="930" type="curve" smooth="yes"/>
      <point x="1044" y="930"/>
      <point x="1023" y="918"/>
      <point x="1004" y="887" type="curve" smooth="yes"/>
      <point x="969" y="792"/>
      <point x="927" y="757"/>
      <point x="858" y="757" type="curve" smooth="yes"/>
    </contour>
  </outline>
</glyph>
<glyph name="G" format="2">
  <advance width="1533"/>
  <unicode hex="0047"/>
  <anchor x="992" y="1566.0" name="center"/>
  <outline>
    <contour>
      <point x="914" y="1427" type="curve" smooth="yes"/>
      <point x="524" y="1427"/>
      <point x="183" y="1112"/>
      <point x="110" y="657" type="curve" smooth="yes"/>
      <point x="43" y="230"/>
      <point x="251" y="-26"/>
      <point x="616" y="-26" type="curve" smooth="yes"/>
      <point x="794" y="-26"/>
      <point x="885" y="55"/>
      <point x="937" y="55" type="curve" smooth="yes"/>
      <point x="997" y="55"/>
      <point x="1111" y="-26"/>
      <point x="1178" y="-26" type="curve" smooth="yes"/>
      <point x="1232" y="-26"/>
      <point x="1259" y="2"/>
      <point x="1283" y="79" type="curve" smooth="yes"/>
      <point x="1393" y="492" type="line" smooth="yes"/>
      <point x="1405" y="529"/>
      <point x="1416" y="548"/>
      <point x="1444" y="560" type="curve" smooth="yes"/>
      <point x="1483" y="575" type="line" smooth="yes"/>
      <point x="1513" y="588"/>
      <point x="1540" y="613"/>
      <point x="1540" y="650" type="curve" smooth="yes"/>
      <point x="1540" y="687"/>
      <point x="1525" y="715"/>
      <point x="1461" y="715" type="curve" smooth="yes"/>
      <point x="939" y="715" type="line" smooth="yes"/>
      <point x="878" y="715"/>
      <point x="846" y="684"/>
      <point x="846" y="638" type="curve" smooth="yes"/>
      <point x="846" y="609"/>
      <point x="857" y="584"/>
      <point x="891" y="578" type="curve" smooth="yes"/>
      <point x="977" y="564" type="line" smooth="yes"/>
      <point x="1006" y="559"/>
      <point x="1010" y="533"/>
      <point x="1002" y="499" type="curve" smooth="yes"/>
      <point x="959" y="306" type="line" smooth="yes"/>
      <point x="933" y="191"/>
      <point x="848" y="137"/>
      <point x="753" y="137" type="curve" smooth="yes"/>
      <point x="614" y="137"/>
      <point x="534" y="267"/>
      <point x="598" y="653" type="curve" smooth="yes"/>
      <point x="668" y="1064"/>
      <point x="833" y="1273"/>
      <point x="1036" y="1273" type="curve" smooth="yes"/>
      <point x="1163" y="1273"/>
      <point x="1253" y="1206"/>
      <point x="1308" y="1042" type="curve" smooth="yes"/>
      <point x="1342" y="949" type="line" smooth="yes"/>
      <point x="1359" y="907"/>
      <point x="1391" y="889"/>
      <point x="1434" y="893" type="curve" smooth="yes"/>
      <point x="1472" y="896"/>
      <point x="1503" y="920"/>
      <point x="1500" y="973" type="curve" smooth="yes"/>
      <point x="1503" y="1338" type="line" smooth="yes"/>
      <point x="1499" y="1399"/>
      <point x="1468" y="1430"/>
      <point x="1421" y="1430" type="curve" smooth="yes"/>
      <point x="1361" y="1430"/>
      <point x="1305" y="1333"/>
      <point x="1246" y="1333" type="curve" smooth="yes"/>
      <point x="1198" y="1333"/>
      <point x="1130" y="1427"/>
    </contour>
  </outline>
</glyph>
<glyph name="M" format="2">
  <advance width="1901"/>
  <unicode hex="004D"/>
  <anchor x="854" y="1444" name="center"/>
  <outline>
    <contour>
      <point x="1008" y="490" type="line"/>
      <point x="958" y="774"/>
      <point x="912" y="1059"/>
      <point x="879" y="1258" type="curve" smooth="yes"/>
      <point x="857" y="1364"/>
      <point x="804" y="1400"/>
      <point x="724" y="1400" type="curve" smooth="yes"/>
      <point x="392" y="1400" type="line" smooth="yes"/>
      <point x="335" y="1400"/>
      <point x="300" y="1371"/>
      <point x="300" y="1324" type="curve" smooth="yes"/>
      <point x="300" y="1295"/>
      <point x="314" y="1277"/>
      <point x="345" y="1263" type="curve" smooth="yes"/>
      <point x="386" y="1248" type="line" smooth="yes"/>
      <point x="417" y="1236"/>
      <point x="426" y="1218"/>
      <point x="409" y="1161" type="curve" smooth="yes"/>
      <point x="206" y="399" type="line" smooth="yes"/>
      <point x="150" y="204"/>
      <point x="117" y="173"/>
      <point x="69" y="153" type="curve" smooth="yes"/>
      <point x="41" y="141" type="line" smooth="yes"/>
      <point x="11" y="128"/>
      <point x="-16" y="103"/>
      <point x="-16" y="65" type="curve" smooth="yes"/>
      <point x="-16" y="28"/>
      <point x="1" y="0"/>
      <point x="63" y="0" type="curve" smooth="yes"/>
      <point x="361" y="0" type="line" smooth="yes"/>
      <point x="420" y="0"/>
      <point x="453" y="31"/>
      <point x="453" y="77" type="curve" smooth="yes"/>
      <point x="453" y="104"/>
      <point x="440" y="121"/>
      <point x="408" y="137" type="curve" smooth="yes"/>
      <point x="381" y="150" type="line" smooth="yes"/>
      <point x="333" y="170"/>
      <point x="316" y="214"/>
      <point x="336" y="297" type="curve" smooth="yes"/>
      <point x="544" y="1070" type="line"/>
      <point x="512" y="1063" type="line"/>
      <point x="560" y="727"/>
      <point x="609" y="407"/>
      <point x="636" y="214" type="curve" smooth="yes"/>
      <point x="653" y="128"/>
      <point x="697" y="87"/>
      <point x="749" y="87" type="curve" smooth="yes"/>
      <point x="814" y="87"/>
      <point x="848" y="112"/>
      <point x="902" y="192" type="curve" smooth="yes"/>
      <point x="1416" y="1056" type="line"/>
      <point x="1391" y="1058" type="line"/>
      <point x="1339" y="767"/>
      <point x="1276" y="461"/>
      <point x="1235" y="250" type="curve" smooth="yes"/>
      <point x="1222" y="190"/>
      <point x="1210" y="167"/>
      <point x="1178" y="155" type="curve" smooth="yes"/>
      <point x="1133" y="141" type="line" smooth="yes"/>
      <point x="1102" y="128"/>
      <point x="1076" y="103"/>
      <point x="1076" y="66" type="curve" smooth="yes"/>
      <point x="1076" y="25"/>
      <point x="1095" y="0"/>
      <point x="1155" y="0" type="curve" smooth="yes"/>
      <point x="1683" y="0" type="line" smooth="yes"/>
      <point x="1743" y="0"/>
      <point x="1776" y="31"/>
      <point x="1776" y="77" type="curve" smooth="yes"/>
      <point x="1776" y="106"/>
      <point x="1760" y="123"/>
      <point x="1730" y="137" type="curve" smooth="yes"/>
      <point x="1686" y="152" type="line" smooth="yes"/>
      <point x="1659" y="163"/>
      <point x="1650" y="193"/>
      <point x="1658" y="237" type="curve" smooth="yes"/>
      <point x="1676" y="343"/>
      <point x="1814" y="1055"/>
      <point x="1839" y="1170" type="curve" smooth="yes"/>
      <point x="1848" y="1212"/>
      <point x="1862" y="1235"/>
      <point x="1888" y="1245" type="curve" smooth="yes"/>
      <point x="1937" y="1259" type="line" smooth="yes"/>
      <point x="1967" y="1271"/>
      <point x="1994" y="1297"/>
      <point x="1994" y="1335" type="curve" smooth="yes"/>
      <point x="1994" y="1377"/>
      <point x="1973" y="1400"/>
      <point x="1915" y="1400" type="curve" smooth="yes"/>
      <point x="1561" y="1400" type="line" smooth="yes"/>
      <point x="1504" y="1400"/>
      <point x="1442" y="1373"/>
      <point x="1385" y="1283" type="curve" smooth="yes"/>
      <point x="836" y="408" type="line"/>
    </contour>
  </outline>
</glyph>
<glyph name="S" format="2">
  <advance width="1280"/>
  <unicode hex="0053"/>
  <outline>
    <contour>
      <point x="630" y="-26" type="curve" smooth="yes"/>
      <point x="926" y="-26"/>
      <point x="1139" y="146"/>
      <point x="1161" y="370" type="curve" smooth="yes"/>
      <point x="1180" y="553"/>
      <point x="1102" y="679"/>
      <point x="845" y="837" type="curve" smooth="yes"/>
      <point x="691" y="931"/>
      <point x="634" y="1016"/>
      <point x="646" y="1109" type="curve" smooth="yes"/>
      <point x="659" y="1218"/>
      <point x="728" y="1297"/>
      <point x="836" y="1297" type="curve" smooth="yes"/>
      <point x="935" y="1297"/>
      <point x="986" y="1228"/>
      <point x="1008" y="1110" type="curve" smooth="yes"/>
      <point x="1025" y="1038" type="line" smooth="yes"/>
      <point x="1055" y="932"/>
      <point x="1108" y="896"/>
      <point x="1188" y="896" type="curve" smooth="yes"/>
      <point x="1289" y="896"/>
      <point x="1345" y="973"/>
      <point x="1349" y="1074" type="curve" smooth="yes"/>
      <point x="1358" y="1252"/>
      <point x="1184" y="1431"/>
      <point x="852" y="1431" type="curve" smooth="yes"/>
      <point x="483" y="1431"/>
      <point x="266" y="1219"/>
      <point x="241" y="968" type="curve" smooth="yes"/>
      <point x="221" y="790"/>
      <point x="298" y="662"/>
      <point x="505" y="542" type="curve" smooth="yes"/>
      <point x="684" y="438"/>
      <point x="736" y="346"/>
      <point x="718" y="245" type="curve" smooth="yes"/>
      <point x="705" y="170"/>
      <point x="651" y="117"/>
      <point x="558" y="117" type="curve" smooth="yes"/>
      <point x="454" y="117"/>
      <point x="352" y="179"/>
      <point x="313" y="311" type="curve" smooth="yes"/>
      <point x="284" y="437" type="line" smooth="yes"/>
      <point x="255" y="499"/>
      <point x="231" y="530"/>
      <point x="185" y="530" type="curve" smooth="yes"/>
      <point x="137" y="530"/>
      <point x="106" y="494"/>
      <point x="102" y="426" type="curve" smooth="yes"/>
      <point x="59" y="72" type="line" smooth="yes"/>
      <point x="56" y="8"/>
      <point x="82" y="-19"/>
      <point x="135" y="-19" type="curve" smooth="yes"/>
      <point x="203" y="-19"/>
      <point x="265" y="81"/>
      <point x="313" y="81" type="curve" smooth="yes"/>
      <point x="359" y="81"/>
      <point x="426" y="-26"/>
    </contour>
  </outline>
</glyph>
<glyph name="T" format="2">
  <advance width="1332"/>
  <unicode hex="0054"/>
  <anchor x="542" y="1516" name="center"/>
  <outline>
    <contour>
      <point x="552" y="1429" type="curve" smooth="yes"/>
      <point x="312" y="1429"/>
      <point x="173" y="1279"/>
      <point x="169" y="1099" type="curve" smooth="yes"/>
      <point x="166" y="973"/>
      <point x="237" y="900"/>
      <point x="342" y="900" type="curve" smooth="yes"/>
      <point x="433" y="900"/>
      <point x="493" y="962"/>
      <point x="494" y="1042" type="curve" smooth="yes"/>
      <point x="494" y="1099"/>
      <point x="477" y="1130"/>
      <point x="478" y="1180" type="curve" smooth="yes"/>
      <point x="479" y="1256"/>
      <point x="514" y="1294"/>
      <point x="580" y="1294" type="curve" smooth="yes"/>
      <point x="735" y="1294"/>
      <point x="1135" y="1142"/>
      <point x="1303" y="1142" type="curve" smooth="yes"/>
      <point x="1471" y="1142"/>
      <point x="1577" y="1243"/>
      <point x="1580" y="1406" type="curve" smooth="yes"/>
      <point x="1581" y="1520"/>
      <point x="1519" y="1583"/>
      <point x="1436" y="1583" type="curve" smooth="yes"/>
      <point x="1333" y="1583"/>
      <point x="1285" y="1523"/>
      <point x="1275" y="1443" type="curve" smooth="yes"/>
      <point x="1272" y="1406"/>
      <point x="1276" y="1379"/>
      <point x="1272" y="1356" type="curve" smooth="yes"/>
      <point x="1264" y="1322"/>
      <point x="1244" y="1306"/>
      <point x="1209" y="1306" type="curve" smooth="yes"/>
      <point x="1087" y="1306"/>
      <point x="792" y="1429"/>
    </contour>
    <contour>
      <point x="845" y="226" type="curve" smooth="yes"/>
      <point x="880" y="337"/>
      <point x="1079" y="1115"/>
      <point x="1134" y="1264" type="curve"/>
      <point x="720" y="1343" type="line"/>
      <point x="678" y="1207"/>
      <point x="460" y="397"/>
      <point x="409" y="251" type="curve" smooth="yes"/>
      <point x="389" y="193"/>
      <point x="371" y="163"/>
      <point x="354" y="157" type="curve" smooth="yes"/>
      <point x="305" y="141" type="line" smooth="yes"/>
      <point x="271" y="125"/>
      <point x="248" y="101"/>
      <point x="248" y="62" type="curve" smooth="yes"/>
      <point x="248" y="25"/>
      <point x="270" y="0"/>
      <point x="327" y="0" type="curve" smooth="yes"/>
      <point x="860" y="0" type="line" smooth="yes"/>
      <point x="915" y="0"/>
      <point x="953" y="25"/>
      <point x="953" y="74" type="curve" smooth="yes"/>
      <point x="953" y="101"/>
      <point x="940" y="119"/>
      <point x="907" y="136" type="curve" smooth="yes"/>
      <point x="860" y="154" type="line" smooth="yes"/>
      <point x="840" y="162"/>
      <point x="831" y="182"/>
    </contour>
  </outline>
</glyph>
<glyph name="W" format="2">
  <advance width="2141"/>
  <unicode hex="0057"/>
  <anchor x="1448" y="1478.0" name="center"/>
  <outline>
    <contour>
      <point x="1187" y="1131" type="line"/>
      <point x="624" y="224" type="line"/>
      <point x="740" y="241" type="line"/>
      <point x="737" y="586"/>
      <point x="750" y="1004"/>
      <point x="754" y="1141" type="curve" smooth="yes"/>
      <point x="756" y="1202"/>
      <point x="772" y="1232"/>
      <point x="813" y="1246" type="curve" smooth="yes"/>
      <point x="851" y="1258" type="line" smooth="yes"/>
      <point x="887" y="1274"/>
      <point x="909" y="1301"/>
      <point x="909" y="1336" type="curve" smooth="yes"/>
      <point x="909" y="1375"/>
      <point x="889" y="1400"/>
      <point x="826" y="1400" type="curve" smooth="yes"/>
      <point x="317" y="1400" type="line" smooth="yes"/>
      <point x="256" y="1400"/>
      <point x="224" y="1372"/>
      <point x="224" y="1330" type="curve" smooth="yes"/>
      <point x="224" y="1295"/>
      <point x="241" y="1276"/>
      <point x="274" y="1260" type="curve" smooth="yes"/>
      <point x="299" y="1250" type="line" smooth="yes"/>
      <point x="328" y="1238"/>
      <point x="328" y="1206"/>
      <point x="328" y="1168" type="curve" smooth="yes"/>
      <point x="335" y="943"/>
      <point x="332" y="420"/>
      <point x="335" y="291" type="curve" smooth="yes"/>
      <point x="337" y="246"/>
      <point x="332" y="214"/>
      <point x="324" y="185" type="curve" smooth="yes"/>
      <point x="299" y="90" type="line" smooth="yes"/>
      <point x="281" y="29"/>
      <point x="314" y="0"/>
      <point x="386" y="0" type="curve" smooth="yes"/>
      <point x="631" y="0" type="line" smooth="yes"/>
      <point x="709" y="0"/>
      <point x="738" y="29"/>
      <point x="756" y="82" type="curve" smooth="yes"/>
      <point x="777" y="147" type="line" smooth="yes"/>
      <point x="793" y="196"/>
      <point x="808" y="223"/>
      <point x="832" y="263" type="curve" smooth="yes"/>
      <point x="1278" y="1002" type="line"/>
    </contour>
    <contour>
      <point x="1814" y="1325" type="curve" smooth="yes"/>
      <point x="1814" y="1298"/>
      <point x="1827" y="1281"/>
      <point x="1850" y="1268" type="curve" smooth="yes"/>
      <point x="1885" y="1251" type="line" smooth="yes"/>
      <point x="1971" y="1210"/>
      <point x="1962" y="1123"/>
      <point x="1908" y="1023" type="curve" smooth="yes"/>
      <point x="1464" y="248" type="line"/>
      <point x="1577" y="239" type="line"/>
      <point x="1560" y="483"/>
      <point x="1548" y="987"/>
      <point x="1543" y="1117" type="curve" smooth="yes"/>
      <point x="1541" y="1190"/>
      <point x="1553" y="1226"/>
      <point x="1594" y="1243" type="curve" smooth="yes"/>
      <point x="1628" y="1256" type="line" smooth="yes"/>
      <point x="1667" y="1274"/>
      <point x="1692" y="1299"/>
      <point x="1692" y="1334" type="curve" smooth="yes"/>
      <point x="1692" y="1379"/>
      <point x="1662" y="1400"/>
      <point x="1613" y="1400" type="curve" smooth="yes"/>
      <point x="1136" y="1400" type="line" smooth="yes"/>
      <point x="1076" y="1400"/>
      <point x="1042" y="1372"/>
      <point x="1042" y="1323" type="curve" smooth="yes"/>
      <point x="1042" y="1299"/>
      <point x="1058" y="1278"/>
      <point x="1083" y="1265" type="curve" smooth="yes"/>
      <point x="1108" y="1252" type="line" smooth="yes"/>
      <point x="1133" y="1241"/>
      <point x="1136" y="1220"/>
      <point x="1141" y="1168" type="curve" smooth="yes"/>
      <point x="1163" y="958"/>
      <point x="1170" y="441"/>
      <point x="1180" y="253" type="curve" smooth="yes"/>
      <point x="1182" y="225"/>
      <point x="1174" y="196"/>
      <point x="1166" y="169" type="curve" smooth="yes"/>
      <point x="1149" y="102" type="line" smooth="yes"/>
      <point x="1133" y="44"/>
      <point x="1166" y="0"/>
      <point x="1223" y="0" type="curve" smooth="yes"/>
      <point x="1493" y="0" type="line" smooth="yes"/>
      <point x="1549" y="0"/>
      <point x="1590" y="31"/>
      <point x="1601" y="87" type="curve" smooth="yes"/>
      <point x="1616" y="153" type="line" smooth="yes"/>
      <point x="1628" y="208"/>
      <point x="1636" y="239"/>
      <point x="1662" y="279" type="curve" smooth="yes"/>
      <point x="2077" y="1002" type="line" smooth="yes"/>
      <point x="2142" y="1116"/>
      <point x="2202" y="1212"/>
      <point x="2263" y="1242" type="curve" smooth="yes"/>
      <point x="2299" y="1259" type="line" smooth="yes"/>
      <point x="2335" y="1276"/>
      <point x="2355" y="1304"/>
      <point x="2355" y="1334" type="curve" smooth="yes"/>
      <point x="2355" y="1373"/>
      <point x="2336" y="1400"/>
      <point x="2276" y="1400" type="curve" smooth="yes"/>
      <point x="1907" y="1400" type="line" smooth="yes"/>
      <point x="1847" y="1400"/>
      <point x="1814" y="1369"/>
    </contour>
  </outline>
</glyph>
<glyph name="asciicircum" format="2">
  <advance width="929"/>
  <unicode hex="005E"/>
  <outline>
    <contour>
      <point x="751" y="1260" type="line"/>
      <point x="375" y="820" type="line" smooth="yes"/>
      <point x="307" y="755"/>
      <point x="241" y="731"/>
      <point x="194" y="731" type="curve" smooth="yes"/>
      <point x="129" y="731"/>
      <point x="139" y="800"/>
      <point x="210" y="879" type="curve" smooth="yes"/>
      <point x="541" y="1317" type="line" smooth="yes"/>
      <point x="627" y="1413"/>
      <point x="674" y="1433"/>
      <point x="735" y="1433" type="curve" smooth="yes"/>
      <point x="797" y="1433"/>
      <point x="832" y="1413"/>
      <point x="861" y="1317" type="curve" smooth="yes"/>
      <point x="960" y="876" type="line" smooth="yes"/>
      <point x="985" y="793"/>
      <point x="953" y="730"/>
      <point x="887" y="730" type="curve" smooth="yes"/>
      <point x="841" y="730"/>
      <point x="808" y="755"/>
      <point x="778" y="819" type="curve" smooth="yes"/>
      <point x="636" y="1260" type="line"/>
    </contour>
  </outline>
</glyph>
<glyph name="b" format="2">
  <advance width="1226"/>
  <unicode hex="0062"/>
  <outline>
    <contour>
      <point x="683" y="1131" type="line" smooth="yes"/>
      <point x="714" y="1237"/>
      <point x="742" y="1273"/>
      <point x="791" y="1273" type="curve" smooth="yes"/>
      <point x="906.0" y="1273.0"/>
      <point x="1005.0" y="1034.0"/>
      <point x="1166" y="1034" type="curve" smooth="yes"/>
      <point x="1279.3926380368098" y="1034.0"/>
      <point x="1349.0" y="1119.0"/>
      <point x="1349" y="1221" type="curve" smooth="yes"/>
      <point x="1349.0" y="1351.0"/>
      <point x="1210.9569892473119" y="1440.0"/>
      <point x="957" y="1440" type="curve" smooth="yes"/>
      <point x="538" y="1440"/>
      <point x="329" y="1242"/>
      <point x="234" y="910" type="curve" smooth="yes"/>
      <point x="29" y="197" type="line" smooth="yes"/>
      <point x="-14" y="46"/>
      <point x="14" y="-12.0"/>
      <point x="89" y="-12" type="curve" smooth="yes"/>
      <point x="132" y="-12"/>
      <point x="181" y="9"/>
      <point x="245" y="57" type="curve" smooth="yes"/>
      <point x="395" y="170" type="line"/>
      <point x="323" y="227" type="line"/>
      <point x="306.0" y="58"/>
      <point x="430" y="-30"/>
      <point x="606" y="-30" type="curve" smooth="yes"/>
      <point x="917" y="-30"/>
      <point x="1207" y="293"/>
      <point x="1207" y="663" type="curve" smooth="yes"/>
      <point x="1207" y="851"/>
      <point x="1104" y="970"/>
      <point x="921" y="970.0" type="curve" smooth="yes"/>
      <point x="735" y="970"/>
      <point x="545" y="861"/>
      <point x="460" y="602" type="curve"/>
      <point x="527" y="606" type="line"/>
    </contour>
    <contour>
      <point x="723" y="773" type="curve" smooth="yes"/>
      <point x="758" y="776"/>
      <point x="788" y="752"/>
      <point x="788" y="675" type="curve" smooth="yes"/>
      <point x="788" y="431"/>
      <point x="641" y="128"/>
      <point x="536" y="128" type="curve" smooth="yes"/>
      <point x="497" y="128"/>
      <point x="473" y="165"/>
      <point x="475" y="236" type="curve" smooth="yes"/>
      <point x="482" y="462"/>
      <point x="618" y="765"/>
    </contour>
  </outline>
</glyph>
<glyph name="c" format="2">
  <advance width="1059"/>
  <unicode hex="0063"/>
  <anchor x="679" y="1026.0" name="center"/>
  <outline>
    <contour>
      <point x="644" y="824.0" type="curve" smooth="yes"/>
      <point x="683" y="824.0"/>
      <point x="702.9999874735246" y="791.9994488350818"/>
      <point x="702" y="748" type="curve" smooth="yes"/>
      <point x="701" y="693"/>
      <point x="679" y="657"/>
      <point x="678" y="604" type="curve" smooth="yes"/>
      <point x="675.9998819363115" y="533.9958677708989"/>
      <point x="729.3566433566433" y="485.0"/>
      <point x="831" y="485.0" type="curve" smooth="yes"/>
      <point x="933" y="485.0"/>
      <point x="1039" y="557"/>
      <point x="1046" y="684" type="curve" smooth="yes"/>
      <point x="1054.9998991531068" y="828.9983752444978"/>
      <point x="942" y="970.0"/>
      <point x="696" y="970.0" type="curve" smooth="yes"/>
      <point x="323" y="970.0"/>
      <point x="76.48328756721949" y="732.6510036907639"/>
      <point x="41" y="434" type="curve" smooth="yes"/>
      <point x="4.759101770695096" y="137.02597284319603"/>
      <point x="155.0" y="-30.0"/>
      <point x="440" y="-30.0" type="curve" smooth="yes"/>
      <point x="727.1063829787233" y="-30.0"/>
      <point x="904" y="95"/>
      <point x="957" y="272" type="curve" smooth="yes"/>
      <point x="980" y="351"/>
      <point x="954" y="393"/>
      <point x="914" y="394" type="curve" smooth="yes"/>
      <point x="874" y="395"/>
      <point x="854" y="366"/>
      <point x="805" y="312" type="curve" smooth="yes"/>
      <point x="751" y="253"/>
      <point x="697" y="217"/>
      <point x="630" y="217" type="curve" smooth="yes"/>
      <point x="510" y="217"/>
      <point x="447.70608117334643" y="312.96153071837045"/>
      <point x="479" y="530" type="curve" smooth="yes"/>
      <point x="506.2550901528699" y="722.7324232238657"/>
      <point x="580" y="824.0"/>
    </contour>
  </outline>
</glyph>
<glyph name="e" format="2">
  <advance width="1118"/>
  <unicode hex="0065"/>
  <outline>
    <contour>
      <point x="237" y="435" type="curve"/>
      <point x="247" y="341" type="line"/>
      <point x="247" y="341"/>
      <point x="809" y="492"/>
      <point x="1000" y="536" type="curve" smooth="yes"/>
      <point x="1070" y="553"/>
      <point x="1092" y="586"/>
      <point x="1092" y="619" type="curve" smooth="yes"/>
      <point x="1092" y="643"/>
      <point x="1080" y="655"/>
      <point x="1060" y="663" type="curve" smooth="yes"/>
      <point x="1043" y="670"/>
      <point x="1034" y="693"/>
      <point x="1028" y="719" type="curve" smooth="yes"/>
      <point x="1004" y="868"/>
      <point x="914" y="978"/>
      <point x="705" y="978" type="curve" smooth="yes"/>
      <point x="333" y="978"/>
      <point x="75" y="729"/>
      <point x="43" y="402" type="curve" smooth="yes"/>
      <point x="18" y="140"/>
      <point x="145" y="-27"/>
      <point x="443" y="-27" type="curve" smooth="yes"/>
      <point x="798" y="-27"/>
      <point x="1008" y="139"/>
      <point x="1039" y="344" type="curve" smooth="yes"/>
      <point x="1040" y="374"/>
      <point x="1025" y="405"/>
      <point x="987" y="406" type="curve" smooth="yes"/>
      <point x="950" y="407"/>
      <point x="928" y="393"/>
      <point x="890" y="351" type="curve" smooth="yes"/>
      <point x="825" y="260"/>
      <point x="739" y="210"/>
      <point x="638" y="210" type="curve" smooth="yes"/>
      <point x="505" y="210"/>
      <point x="441" y="310"/>
      <point x="459" y="500" type="curve" smooth="yes"/>
      <point x="480" y="709"/>
      <point x="554" y="836"/>
      <point x="626" y="836" type="curve" smooth="yes"/>
      <point x="673" y="836"/>
      <point x="696" y="797"/>
      <point x="696" y="732" type="curve" smooth="yes"/>
      <point x="695" y="647"/>
      <point x="683" y="577"/>
      <point x="662" y="528" type="curve"/>
      <point x="694" y="557" type="line"/>
      <point x="553" y="516"/>
      <point x="237" y="435"/>
    </contour>
  </outline>
</glyph>
<glyph name="h" format="2">
  <advance width="1273"/>
  <unicode hex="0068"/>
  <outline>
    <contour>
      <point x="519" y="448" type="curve" smooth="yes"/>
      <point x="574.0" y="591.0"/>
      <point x="660.0" y="688.0"/>
      <point x="730" y="688" type="curve" smooth="yes"/>
      <point x="783.0" y="688.0"/>
      <point x="787" y="644"/>
      <point x="756" y="555" type="curve" smooth="yes"/>
      <point x="658" y="277" type="line" smooth="yes"/>
      <point x="593" y="94"/>
      <point x="625" y="-30"/>
      <point x="827" y="-30" type="curve" smooth="yes"/>
      <point x="1007" y="-30"/>
      <point x="1145" y="53"/>
      <point x="1209" y="177" type="curve" smooth="yes"/>
      <point x="1238" y="233"/>
      <point x="1234" y="270"/>
      <point x="1209" y="283" type="curve" smooth="yes"/>
      <point x="1189" y="293"/>
      <point x="1171" y="290"/>
      <point x="1139" y="264" type="curve" smooth="yes"/>
      <point x="1116" y="246"/>
      <point x="1104" y="240"/>
      <point x="1089" y="240" type="curve" smooth="yes"/>
      <point x="1062" y="240"/>
      <point x="1047" y="270"/>
      <point x="1079" y="361" type="curve" smooth="yes"/>
      <point x="1177" y="640" type="line" smooth="yes"/>
      <point x="1245" y="832"/>
      <point x="1202" y="970"/>
      <point x="1009" y="970" type="curve" smooth="yes"/>
      <point x="847.0" y="970.0"/>
      <point x="648" y="881"/>
      <point x="507" y="614" type="curve"/>
      <point x="531" y="606" type="line"/>
      <point x="687" y="1131" type="line" smooth="yes"/>
      <point x="718" y="1237"/>
      <point x="746" y="1273"/>
      <point x="795" y="1273" type="curve" smooth="yes"/>
      <point x="910" y="1273"/>
      <point x="1009" y="1054"/>
      <point x="1170" y="1054" type="curve" smooth="yes"/>
      <point x="1271" y="1054"/>
      <point x="1333" y="1130"/>
      <point x="1333" y="1221" type="curve" smooth="yes"/>
      <point x="1333" y="1351"/>
      <point x="1202" y="1440"/>
      <point x="961" y="1440" type="curve" smooth="yes"/>
      <point x="542" y="1440"/>
      <point x="333" y="1242"/>
      <point x="238" y="910" type="curve" smooth="yes"/>
      <point x="42" y="224" type="line" smooth="yes"/>
      <point x="-4" y="63"/>
      <point x="13" y="-30"/>
      <point x="156" y="-30" type="curve" smooth="yes"/>
      <point x="363" y="-30"/>
      <point x="483" y="29"/>
      <point x="483" y="120" type="curve" smooth="yes"/>
      <point x="483" y="168"/>
      <point x="460" y="201"/>
      <point x="460" y="245" type="curve" smooth="yes"/>
      <point x="460" y="288"/>
      <point x="482" y="352"/>
    </contour>
  </outline>
</glyph>
<glyph name="i" format="2">
  <advance width="741"/>
  <unicode hex="0069"/>
  <outline>
    <contour>
      <point x="534" y="364" type="curve" smooth="yes"/>
      <point x="632" y="645" type="line" smooth="yes"/>
      <point x="719" y="851"/>
      <point x="649" y="975"/>
      <point x="470" y="975" type="curve" smooth="yes"/>
      <point x="313" y="975"/>
      <point x="163" y="876"/>
      <point x="85" y="753" type="curve" smooth="yes"/>
      <point x="53" y="711"/>
      <point x="55" y="672"/>
      <point x="81" y="656" type="curve" smooth="yes"/>
      <point x="97" y="648"/>
      <point x="118" y="647"/>
      <point x="146" y="662" type="curve" smooth="yes"/>
      <point x="182" y="694"/>
      <point x="201" y="707"/>
      <point x="221" y="707" type="curve" smooth="yes"/>
      <point x="258" y="707"/>
      <point x="265" y="677"/>
      <point x="225" y="581" type="curve" smooth="yes"/>
      <point x="117" y="280" type="line" smooth="yes"/>
      <point x="42" y="100"/>
      <point x="84" y="-27"/>
      <point x="286" y="-27" type="curve" smooth="yes"/>
      <point x="460" y="-27"/>
      <point x="594" y="59"/>
      <point x="658" y="183" type="curve" smooth="yes"/>
      <point x="687" y="234"/>
      <point x="685" y="270"/>
      <point x="663" y="285" type="curve" smooth="yes"/>
      <point x="646" y="297"/>
      <point x="629" y="296"/>
      <point x="608" y="281" type="curve" smooth="yes"/>
      <point x="577" y="251"/>
      <point x="564" y="243"/>
      <point x="544" y="243" type="curve" smooth="yes"/>
      <point x="508" y="243"/>
      <point x="501" y="277"/>
    </contour>
    <contour>
      <point x="523" y="1064" type="curve" smooth="yes"/>
      <point x="707" y="1064"/>
      <point x="821" y="1166"/>
      <point x="821" y="1290" type="curve" smooth="yes"/>
      <point x="821" y="1387"/>
      <point x="761" y="1460"/>
      <point x="617" y="1460" type="curve" smooth="yes"/>
      <point x="427" y="1460"/>
      <point x="313" y="1344"/>
      <point x="313" y="1226" type="curve" smooth="yes"/>
      <point x="313" y="1134"/>
      <point x="386" y="1064"/>
    </contour>
  </outline>
</glyph>
<glyph name="j" format="2">
  <advance width="697"/>
  <unicode hex="006A"/>
  <outline>
    <contour>
      <point x="635" y="669" type="line" smooth="yes"/>
      <point x="692" y="860"/>
      <point x="646" y="975"/>
      <point x="460" y="975" type="curve" smooth="yes"/>
      <point x="303" y="975"/>
      <point x="154" y="876"/>
      <point x="76" y="753" type="curve" smooth="yes"/>
      <point x="44" y="711"/>
      <point x="46" y="672"/>
      <point x="73" y="656" type="curve" smooth="yes"/>
      <point x="88" y="648"/>
      <point x="110" y="647"/>
      <point x="138" y="662" type="curve" smooth="yes"/>
      <point x="173" y="695"/>
      <point x="193" y="707"/>
      <point x="212" y="707" type="curve" smooth="yes"/>
      <point x="249" y="707"/>
      <point x="238" y="658"/>
      <point x="220" y="596" type="curve" smooth="yes"/>
      <point x="115" y="207" type="line" smooth="yes"/>
      <point x="68" y="38"/>
      <point x="243" y="-91"/>
      <point x="212" y="-212" type="curve" smooth="yes"/>
      <point x="203" y="-249"/>
      <point x="180" y="-264"/>
      <point x="146" y="-264" type="curve" smooth="yes"/>
      <point x="67" y="-264"/>
      <point x="8" y="-163"/>
      <point x="-101" y="-163" type="curve" smooth="yes"/>
      <point x="-194" y="-163"/>
      <point x="-260" y="-228"/>
      <point x="-260" y="-318" type="curve" smooth="yes"/>
      <point x="-260" y="-421"/>
      <point x="-180" y="-490"/>
      <point x="-28" y="-490" type="curve" smooth="yes"/>
      <point x="201" y="-490"/>
      <point x="337" y="-358"/>
      <point x="405" y="-129" type="curve" smooth="yes"/>
    </contour>
    <contour>
      <point x="495" y="1064" type="curve" smooth="yes"/>
      <point x="679" y="1064"/>
      <point x="793" y="1166"/>
      <point x="793" y="1290" type="curve" smooth="yes"/>
      <point x="793" y="1387"/>
      <point x="732" y="1460"/>
      <point x="588" y="1460" type="curve" smooth="yes"/>
      <point x="400" y="1460"/>
      <point x="284" y="1344"/>
      <point x="284" y="1226" type="curve" smooth="yes"/>
      <point x="284" y="1134"/>
      <point x="358" y="1064"/>
    </contour>
  </outline>
</glyph>
<glyph name="k" format="2">
  <advance width="1265"/>
  <unicode hex="006B"/>
  <outline>
    <contour>
      <point x="516" y="635" type="line"/>
      <point x="599" y="843"/>
      <point x="802" y="975"/>
      <point x="1007" y="975" type="curve" smooth="yes"/>
      <point x="1171" y="975"/>
      <point x="1264" y="889"/>
      <point x="1243" y="736" type="curve" smooth="yes"/>
      <point x="1215" y="534"/>
      <point x="957" y="414"/>
      <point x="408" y="344" type="curve"/>
      <point x="404" y="429" type="line"/>
      <point x="704" y="458"/>
      <point x="823" y="543"/>
      <point x="847" y="670" type="curve" smooth="yes"/>
      <point x="862" y="740"/>
      <point x="828" y="783"/>
      <point x="768" y="783" type="curve" smooth="yes"/>
      <point x="657" y="783"/>
      <point x="547" y="662"/>
      <point x="496" y="457" type="curve" smooth="yes"/>
      <point x="453" y="304"/>
      <point x="443" y="255"/>
      <point x="443" y="218" type="curve" smooth="yes"/>
      <point x="443" y="161"/>
      <point x="459" y="135"/>
      <point x="459" y="97" type="curve" smooth="yes"/>
      <point x="459" y="23"/>
      <point x="337" y="-27"/>
      <point x="179" y="-27" type="curve" smooth="yes"/>
      <point x="32" y="-27"/>
      <point x="-10" y="46"/>
      <point x="39" y="209" type="curve" smooth="yes"/>
      <point x="253" y="973" type="line" smooth="yes"/>
      <point x="349" y="1313"/>
      <point x="621" y="1488"/>
      <point x="1038" y="1488" type="curve" smooth="yes"/>
      <point x="1246" y="1488"/>
      <point x="1349" y="1393"/>
      <point x="1349" y="1283" type="curve" smooth="yes"/>
      <point x="1349" y="1201"/>
      <point x="1283" y="1127"/>
      <point x="1164" y="1127" type="curve" smooth="yes"/>
      <point x="999" y="1127"/>
      <point x="924" y="1319"/>
      <point x="824" y="1319" type="curve" smooth="yes"/>
      <point x="762" y="1319"/>
      <point x="722" y="1287"/>
      <point x="691" y="1172" type="curve" smooth="yes"/>
      <point x="627" y="909"/>
      <point x="565" y="716"/>
      <point x="542" y="625" type="curve"/>
    </contour>
    <contour>
      <point x="564" y="398" type="line"/>
      <point x="899" y="474" type="line"/>
      <point x="943" y="314" type="line" smooth="yes"/>
      <point x="956" y="273"/>
      <point x="977" y="254"/>
      <point x="1004" y="252" type="curve" smooth="yes"/>
      <point x="1036" y="249"/>
      <point x="1059" y="258"/>
      <point x="1087" y="291" type="curve" smooth="yes"/>
      <point x="1107" y="305"/>
      <point x="1131" y="310"/>
      <point x="1149" y="303" type="curve" smooth="yes"/>
      <point x="1178" y="292"/>
      <point x="1189" y="274"/>
      <point x="1182" y="227" type="curve" smooth="yes"/>
      <point x="1149" y="81"/>
      <point x="985" y="-35"/>
      <point x="798" y="-24" type="curve" smooth="yes"/>
      <point x="702" y="-18"/>
      <point x="646" y="47"/>
      <point x="619" y="159" type="curve" smooth="yes"/>
    </contour>
  </outline>
</glyph>
<glyph name="l" format="2">
  <advance width="732"/>
  <unicode hex="006C"/>
  <outline>
    <contour>
      <point x="595" y="703" type="line" smooth="yes"/>
      <point x="662" y="921"/>
      <point x="494.0" y="1026.0"/>
      <point x="494.0" y="1125" type="curve" smooth="yes"/>
      <point x="494" y="1164"/>
      <point x="519" y="1192"/>
      <point x="565" y="1192.0" type="curve" smooth="yes"/>
      <point x="657.723849372385" y="1192.0"/>
      <point x="683.7698744769874" y="1079.0"/>
      <point x="814" y="1079" type="curve" smooth="yes"/>
      <point x="919.6363636363636" y="1079.0"/>
      <point x="980.0" y="1146.977653631285"/>
      <point x="980.0" y="1248" type="curve" smooth="yes"/>
      <point x="980.0" y="1352.4395604395604"/>
      <point x="899.4513274336283" y="1440.0"/>
      <point x="734" y="1440.0" type="curve" smooth="yes"/>
      <point x="543" y="1440"/>
      <point x="394" y="1335"/>
      <point x="320" y="1094" type="curve" smooth="yes"/>
      <point x="69" y="277" type="line" smooth="yes"/>
      <point x="12" y="91"/>
      <point x="36" y="-30"/>
      <point x="238" y="-30" type="curve" smooth="yes"/>
      <point x="418" y="-30"/>
      <point x="556" y="53"/>
      <point x="620" y="177" type="curve" smooth="yes"/>
      <point x="649" y="233"/>
      <point x="645" y="270"/>
      <point x="620" y="283" type="curve" smooth="yes"/>
      <point x="600" y="293"/>
      <point x="582" y="290"/>
      <point x="550" y="264" type="curve" smooth="yes"/>
      <point x="527" y="246"/>
      <point x="515" y="240"/>
      <point x="500" y="240" type="curve" smooth="yes"/>
      <point x="473" y="240"/>
      <point x="462" y="269"/>
      <point x="490" y="361" type="curve" smooth="yes"/>
    </contour>
  </outline>
</glyph>
<glyph name="o" format="2">
  <advance width="1206"/>
  <unicode hex="006F"/>
  <anchor x="761" y="1000" name="center"/>
  <outline>
    <contour>
      <point x="677" y="972" type="curve" smooth="yes"/>
      <point x="344" y="972"/>
      <point x="106" y="790"/>
      <point x="48" y="485" type="curve" smooth="yes"/>
      <point x="-11" y="172"/>
      <point x="179" y="-30"/>
      <point x="529" y="-30" type="curve" smooth="yes"/>
      <point x="862" y="-30"/>
      <point x="1100" y="152"/>
      <point x="1158" y="457" type="curve" smooth="yes"/>
      <point x="1217" y="770"/>
      <point x="1027" y="972"/>
    </contour>
    <contour>
      <point x="511" y="122" type="curve" smooth="yes"/>
      <point x="440" y="138"/>
      <point x="436" y="266"/>
      <point x="496" y="501" type="curve" smooth="yes"/>
      <point x="559" y="749"/>
      <point x="622" y="836"/>
      <point x="695" y="820" type="curve" smooth="yes"/>
      <point x="766" y="804"/>
      <point x="770" y="676"/>
      <point x="710" y="441" type="curve" smooth="yes"/>
      <point x="647" y="193"/>
      <point x="584" y="106"/>
    </contour>
  </outline>
</glyph>
<glyph name="t" format="2">
  <advance width="868"/>
  <unicode hex="0074"/>
  <anchor x="275" y="1130" name="center"/>
  <outline>
    <contour>
      <point x="179" y="750" type="line" smooth="yes"/>
      <point x="215" y="735"/>
      <point x="221" y="706"/>
      <point x="195" y="618" type="curve" smooth="yes"/>
      <point x="113" y="339" type="line" smooth="yes"/>
      <point x="38" y="85"/>
      <point x="97" y="-30"/>
      <point x="293" y="-30" type="curve" smooth="yes"/>
      <point x="564" y="-30"/>
      <point x="763" y="143"/>
      <point x="782" y="281" type="curve" smooth="yes"/>
      <point x="787" y="315"/>
      <point x="768" y="336"/>
      <point x="741" y="336" type="curve" smooth="yes"/>
      <point x="720" y="336"/>
      <point x="704" y="327"/>
      <point x="677" y="299" type="curve" smooth="yes"/>
      <point x="635" y="255"/>
      <point x="602" y="237"/>
      <point x="563" y="237" type="curve" smooth="yes"/>
      <point x="500" y="237"/>
      <point x="482" y="271"/>
      <point x="508" y="365" type="curve" smooth="yes"/>
      <point x="683" y="996" type="line" smooth="yes"/>
      <point x="697" y="1048"/>
      <point x="703" y="1090"/>
      <point x="703" y="1113" type="curve" smooth="yes"/>
      <point x="703" y="1152"/>
      <point x="681" y="1178"/>
      <point x="633" y="1178" type="curve" smooth="yes"/>
      <point x="594" y="1178"/>
      <point x="563" y="1166"/>
      <point x="530" y="1133" type="curve" smooth="yes"/>
      <point x="376" y="979" type="line" smooth="yes"/>
      <point x="330" y="933"/>
      <point x="288" y="909"/>
      <point x="234" y="909" type="curve" smooth="yes"/>
      <point x="192" y="909" type="line" smooth="yes"/>
      <point x="130" y="909"/>
      <point x="91" y="882"/>
      <point x="91" y="838" type="curve" smooth="yes"/>
      <point x="91" y="807"/>
      <point x="106" y="781"/>
      <point x="139" y="767" type="curve" smooth="yes"/>
    </contour>
    <contour>
      <point x="543" y="743" type="line"/>
      <point x="739" y="743" type="line" smooth="yes"/>
      <point x="825" y="743"/>
      <point x="881" y="784"/>
      <point x="881" y="849" type="curve" smooth="yes"/>
      <point x="881" y="883"/>
      <point x="863" y="902"/>
      <point x="826" y="902" type="curve" smooth="yes"/>
      <point x="593" y="902" type="line"/>
    </contour>
  </outline>
</glyph>
<glyph name="v" format="2">
  <advance width="1340"/>
  <unicode hex="0076"/>
  <outline>
    <contour>
      <point x="1325" y="741" type="curve" smooth="yes"/>
      <point x="1325" y="891"/>
      <point x="1253" y="970"/>
      <point x="1128" y="970" type="curve" smooth="yes"/>
      <point x="1002" y="970"/>
      <point x="917" y="875"/>
      <point x="915" y="762" type="curve" smooth="yes"/>
      <point x="913" y="704"/>
      <point x="932" y="669"/>
      <point x="964" y="625" type="curve" smooth="yes"/>
      <point x="994" y="584"/>
      <point x="1012" y="529"/>
      <point x="1012" y="481" type="curve" smooth="yes"/>
      <point x="1012" y="327"/>
      <point x="890" y="167"/>
      <point x="814" y="168" type="curve" smooth="yes"/>
      <point x="772" y="168"/>
      <point x="741" y="199"/>
      <point x="741" y="280" type="curve" smooth="yes"/>
      <point x="741" y="466"/>
      <point x="867" y="729"/>
      <point x="867" y="886" type="curve" smooth="yes"/>
      <point x="867.0" y="945.0"/>
      <point x="844" y="970"/>
      <point x="804" y="970" type="curve" smooth="yes"/>
      <point x="740" y="970"/>
      <point x="724" y="920"/>
      <point x="642" y="920" type="curve" smooth="yes"/>
      <point x="574" y="920"/>
      <point x="499" y="970"/>
      <point x="377" y="970" type="curve" smooth="yes"/>
      <point x="170" y="970"/>
      <point x="27" y="826"/>
      <point x="18" y="630" type="curve" smooth="yes"/>
      <point x="10.60356236686302" y="478.9013454944874"/>
      <point x="81.0" y="388.0"/>
      <point x="181" y="388" type="curve" smooth="yes"/>
      <point x="236" y="388"/>
      <point x="286" y="423"/>
      <point x="287" y="487" type="curve" smooth="yes"/>
      <point x="288" y="532"/>
      <point x="265" y="559"/>
      <point x="213" y="585" type="curve" smooth="yes"/>
      <point x="174" y="604"/>
      <point x="160" y="625"/>
      <point x="162" y="653" type="curve" smooth="yes"/>
      <point x="164" y="679"/>
      <point x="181" y="698"/>
      <point x="222" y="697" type="curve" smooth="yes"/>
      <point x="366" y="693"/>
      <point x="474" y="578"/>
      <point x="711" y="578" type="curve"/>
      <point x="711" y="633" type="line"/>
      <point x="608" y="486"/>
      <point x="227" y="435"/>
      <point x="227" y="169" type="curve" smooth="yes"/>
      <point x="227" y="39"/>
      <point x="332" y="-30"/>
      <point x="506" y="-30" type="curve" smooth="yes"/>
      <point x="986" y="-30"/>
      <point x="1325" y="324"/>
    </contour>
  </outline>
</glyph>
<glyph name="x" format="2">
  <advance width="1350"/>
  <unicode hex="0078"/>
  <outline>
    <contour>
      <point x="487" y="468" type="line"/>
      <point x="484" y="252"/>
      <point x="405" y="173"/>
      <point x="363" y="173" type="curve" smooth="yes"/>
      <point x="347" y="173"/>
      <point x="331" y="185"/>
      <point x="331" y="208" type="curve" smooth="yes"/>
      <point x="331" y="235"/>
      <point x="343" y="261"/>
      <point x="343" y="293" type="curve" smooth="yes"/>
      <point x="343" y="377"/>
      <point x="288" y="432"/>
      <point x="202" y="432" type="curve" smooth="yes"/>
      <point x="91" y="432"/>
      <point x="5" y="327"/>
      <point x="4" y="175" type="curve" smooth="yes"/>
      <point x="2" y="57"/>
      <point x="70" y="-26"/>
      <point x="198" y="-26" type="curve" smooth="yes"/>
      <point x="392" y="-26"/>
      <point x="540" y="133"/>
      <point x="543" y="440" type="curve"/>
    </contour>
    <contour>
      <point x="835" y="711" type="line" smooth="yes"/>
      <point x="826" y="860"/>
      <point x="750" y="975"/>
      <point x="589" y="975" type="curve" smooth="yes"/>
      <point x="350" y="975"/>
      <point x="182" y="825"/>
      <point x="155" y="682" type="curve" smooth="yes"/>
      <point x="154" y="643"/>
      <point x="182" y="628"/>
      <point x="208" y="626" type="curve"/>
      <point x="238" y="625"/>
      <point x="255" y="637"/>
      <point x="273" y="655" type="curve" smooth="yes"/>
      <point x="319" y="716"/>
      <point x="357" y="736"/>
      <point x="391" y="736" type="curve" smooth="yes"/>
      <point x="435" y="736"/>
      <point x="463" y="701"/>
      <point x="470" y="629" type="curve" smooth="yes"/>
      <point x="497" y="285" type="line" smooth="yes"/>
      <point x="513" y="77"/>
      <point x="608" y="-27"/>
      <point x="810" y="-27" type="curve" smooth="yes"/>
      <point x="1009" y="-27"/>
      <point x="1168" y="135"/>
      <point x="1197" y="283" type="curve" smooth="yes"/>
      <point x="1198" y="316"/>
      <point x="1178" y="338"/>
      <point x="1147" y="339" type="curve" smooth="yes"/>
      <point x="1108" y="340"/>
      <point x="1097" y="331"/>
      <point x="1064" y="307" type="curve" smooth="yes"/>
      <point x="1023" y="255"/>
      <point x="1000" y="230"/>
      <point x="948" y="230" type="curve" smooth="yes"/>
      <point x="893" y="230"/>
      <point x="862" y="280"/>
      <point x="857" y="356" type="curve" smooth="yes"/>
    </contour>
    <contour>
      <point x="843" y="427" type="line"/>
      <point x="848" y="620"/>
      <point x="939" y="755"/>
      <point x="1014" y="755" type="curve" smooth="yes"/>
      <point x="1038" y="755"/>
      <point x="1051" y="738"/>
      <point x="1051" y="717" type="curve" smooth="yes"/>
      <point x="1051" y="688"/>
      <point x="1037" y="649"/>
      <point x="1036" y="628" type="curve" smooth="yes"/>
      <point x="1034" y="558"/>
      <point x="1088" y="515"/>
      <point x="1167" y="515" type="curve" smooth="yes"/>
      <point x="1274" y="515"/>
      <point x="1363" y="600"/>
      <point x="1365" y="755" type="curve" smooth="yes"/>
      <point x="1366" y="880"/>
      <point x="1298" y="973"/>
      <point x="1167" y="973" type="curve" smooth="yes"/>
      <point x="971" y="973"/>
      <point x="802" y="767"/>
      <point x="799" y="444" type="curve"/>
    </contour>
  </outline>
</glyph>
<glyph name="z" format="2">
  <advance width="1210"/>
  <unicode hex="007A"/>
  <outline>
    <contour>
      <point x="563" y="333" type="curve"/>
      <point x="578" y="384" type="line"/>
      <point x="632" y="384"/>
      <point x="774" y="350"/>
      <point x="861" y="350" type="curve" smooth="yes"/>
      <point x="935" y="350"/>
      <point x="1006" y="369"/>
      <point x="1045" y="434" type="curve" smooth="yes"/>
      <point x="1060" y="457"/>
      <point x="1081" y="465"/>
      <point x="1102" y="465" type="curve" smooth="yes"/>
      <point x="1127" y="465"/>
      <point x="1141" y="445"/>
      <point x="1140" y="398" type="curve" smooth="yes"/>
      <point x="1118" y="127"/>
      <point x="941" y="-27"/>
      <point x="737" y="-27" type="curve" smooth="yes"/>
      <point x="486" y="-27"/>
      <point x="503" y="246"/>
      <point x="427" y="250" type="curve" smooth="yes"/>
      <point x="356" y="255"/>
      <point x="335" y="-27"/>
      <point x="150" y="-27" type="curve" smooth="yes"/>
      <point x="74" y="-27"/>
      <point x="24" y="17"/>
      <point x="24" y="97" type="curve" smooth="yes"/>
      <point x="24" y="191"/>
      <point x="91" y="292"/>
      <point x="304" y="344" type="curve" smooth="yes"/>
      <point x="388" y="374"/>
      <point x="463" y="416"/>
      <point x="534" y="465" type="curve" smooth="yes"/>
      <point x="655" y="555"/>
      <point x="723" y="601"/>
      <point x="747" y="621" type="curve"/>
      <point x="738" y="561" type="line"/>
      <point x="635" y="561"/>
      <point x="383" y="664"/>
      <point x="288" y="664" type="curve" smooth="yes"/>
      <point x="251" y="664"/>
      <point x="234" y="649"/>
      <point x="234" y="633" type="curve" smooth="yes"/>
      <point x="234" y="609"/>
      <point x="253" y="592"/>
      <point x="290" y="577" type="curve" smooth="yes"/>
      <point x="323" y="565"/>
      <point x="335" y="535"/>
      <point x="335" y="502" type="curve" smooth="yes"/>
      <point x="335" y="457"/>
      <point x="287" y="429"/>
      <point x="238" y="429" type="curve" smooth="yes"/>
      <point x="148" y="429"/>
      <point x="85" y="491"/>
      <point x="85" y="599" type="curve" smooth="yes"/>
      <point x="85" y="787"/>
      <point x="229" y="978"/>
      <point x="464" y="978" type="curve" smooth="yes"/>
      <point x="779" y="978"/>
      <point x="775" y="707"/>
      <point x="840" y="707" type="curve" smooth="yes"/>
      <point x="923" y="707"/>
      <point x="936" y="978"/>
      <point x="1115" y="978" type="curve" smooth="yes"/>
      <point x="1204" y="978"/>
      <point x="1247" y="922"/>
      <point x="1245" y="839" type="curve" smooth="yes"/>
      <point x="1241" y="720"/>
      <point x="1171" y="650"/>
      <point x="1039" y="616" type="curve" smooth="yes"/>
      <point x="954" y="593"/>
      <point x="882" y="553"/>
      <point x="804" y="501" type="curve" smooth="yes"/>
      <point x="619" y="371"/>
      <point x="571" y="346"/>
    </contour>
  </outline>
</glyph>
<glyph name="onesuperior" format="2">
  <advance width="652"/>
  <unicode hex="00B9"/>
  <outline>
    <contour>
      <point x="338" y="1283" type="line" smooth="yes"/>
      <point x="299" y="1283"/>
      <point x="287" y="1302"/>
      <point x="295" y="1330" type="curve" smooth="yes"/>
      <point x="303" y="1358"/>
      <point x="332" y="1378"/>
      <point x="371" y="1378" type="curve" smooth="yes"/>
      <point x="416" y="1378" type="line" smooth="yes"/>
      <point x="517" y="1378"/>
      <point x="577" y="1397"/>
      <point x="636" y="1426" type="curve" smooth="yes"/>
      <point x="663" y="1435"/>
      <point x="680" y="1439"/>
      <point x="697" y="1439" type="curve" smooth="yes"/>
      <point x="732" y="1439"/>
      <point x="748" y="1423"/>
      <point x="739" y="1391" type="curve" smooth="yes"/>
      <point x="591" y="828" type="line" smooth="yes"/>
      <point x="582" y="799"/>
      <point x="590" y="785"/>
      <point x="608" y="779" type="curve" smooth="yes"/>
      <point x="652" y="765" type="line" smooth="yes"/>
      <point x="676" y="758"/>
      <point x="688" y="744"/>
      <point x="682" y="722" type="curve" smooth="yes"/>
      <point x="674" y="696"/>
      <point x="651" y="680"/>
      <point x="611" y="680" type="curve" smooth="yes"/>
      <point x="171" y="680" type="line" smooth="yes"/>
      <point x="131" y="680"/>
      <point x="116" y="696"/>
      <point x="124" y="722" type="curve" smooth="yes"/>
      <point x="130" y="744"/>
      <point x="151" y="759"/>
      <point x="182" y="765" type="curve" smooth="yes"/>
      <point x="239" y="779" type="line" smooth="yes"/>
      <point x="262" y="784"/>
      <point x="277" y="798"/>
      <point x="286" y="828" type="curve" smooth="yes"/>
      <point x="389" y="1233" type="line" smooth="yes"/>
      <point x="400" y="1272"/>
      <point x="391" y="1283"/>
      <point x="362" y="1283" type="curve" smooth="yes"/>
    </contour>
  </outline>
</glyph>
<glyph name="germandbls" format="2">
  <advance width="1499"/>
  <unicode hex="00DF"/>
  <outline>
    <contour>
      <point x="-2" y="-171" type="line" smooth="yes"/>
      <point x="-53" y="-345"/>
      <point x="-18" y="-436"/>
      <point x="121" y="-436" type="curve" smooth="yes"/>
      <point x="320" y="-436"/>
      <point x="520" y="-338"/>
      <point x="520" y="-239" type="curve" smooth="yes"/>
      <point x="520" y="-172"/>
      <point x="427" y="-158"/>
      <point x="427" y="-84" type="curve" smooth="yes"/>
      <point x="427" y="-62"/>
      <point x="430" y="-31"/>
      <point x="441" y="11" type="curve" smooth="yes"/>
      <point x="690" y="972" type="line" smooth="yes"/>
      <point x="749" y="1206"/>
      <point x="870" y="1354"/>
      <point x="1018" y="1354" type="curve" smooth="yes"/>
      <point x="1112" y="1354"/>
      <point x="1152" y="1270"/>
      <point x="1122" y="1144" type="curve" smooth="yes"/>
      <point x="1087" y="1004"/>
      <point x="1015" y="898"/>
      <point x="849" y="824" type="curve" smooth="yes"/>
      <point x="775" y="786"/>
      <point x="756" y="769"/>
      <point x="744" y="733" type="curve" smooth="yes"/>
      <point x="732" y="687"/>
      <point x="763" y="664"/>
      <point x="813" y="664" type="curve" smooth="yes"/>
      <point x="978" y="664"/>
      <point x="1070" y="518"/>
      <point x="1018" y="321" type="curve" smooth="yes"/>
      <point x="980" y="164"/>
      <point x="926" y="120"/>
      <point x="863" y="120" type="curve" smooth="yes"/>
      <point x="808" y="120"/>
      <point x="779" y="157"/>
      <point x="767" y="234" type="curve" smooth="yes"/>
      <point x="750" y="330" type="line" smooth="yes"/>
      <point x="739" y="365"/>
      <point x="722" y="393"/>
      <point x="676" y="393" type="curve" smooth="yes"/>
      <point x="640" y="393"/>
      <point x="608" y="361"/>
      <point x="591" y="292" type="curve" smooth="yes"/>
      <point x="533" y="58"/>
      <point x="631" y="-31"/>
      <point x="883" y="-31" type="curve" smooth="yes"/>
      <point x="1185" y="-31"/>
      <point x="1381" y="87"/>
      <point x="1439" y="301" type="curve" smooth="yes"/>
      <point x="1510" y="567"/>
      <point x="1365" y="796"/>
      <point x="1023" y="796" type="curve"/>
      <point x="1010" y="763" type="line"/>
      <point x="1264" y="778"/>
      <point x="1485" y="919"/>
      <point x="1541" y="1120" type="curve" smooth="yes"/>
      <point x="1601" y="1330"/>
      <point x="1468" y="1476"/>
      <point x="1125" y="1476" type="curve" smooth="yes"/>
      <point x="629" y="1476"/>
      <point x="394" y="1248"/>
      <point x="314" y="945" type="curve" smooth="yes"/>
      <point x="285" y="847" type="line"/>
      <point x="357" y="916" type="line"/>
      <point x="209" y="916" type="line" smooth="yes"/>
      <point x="150" y="916"/>
      <point x="101" y="895"/>
      <point x="89" y="855" type="curve" smooth="yes"/>
      <point x="77" y="812"/>
      <point x="108" y="797"/>
      <point x="143" y="768" type="curve" smooth="yes"/>
      <point x="202" y="732" type="line" smooth="yes"/>
      <point x="221" y="718"/>
      <point x="239" y="690"/>
      <point x="221" y="639" type="curve" smooth="yes"/>
    </contour>
  </outline>
</glyph>
<glyph name="iogonek" format="2">
  <advance width="741"/>
  <unicode hex="012F"/>
  <outline>
    <contour>
      <point x="518" y="82" type="line"/>
      <point x="134" y="-42"/>
      <point x="-9" y="-176"/>
      <point x="-9" y="-318" type="curve" smooth="yes"/>
      <point x="-9" y="-415"/>
      <point x="63" y="-473"/>
      <point x="208" y="-473" type="curve" smooth="yes"/>
      <point x="345" y="-473"/>
      <point x="461" y="-413"/>
      <point x="520" y="-337" type="curve" smooth="yes"/>
      <point x="555" y="-295"/>
      <point x="542" y="-268"/>
      <point x="522" y="-261" type="curve" smooth="yes"/>
      <point x="501" y="-254"/>
      <point x="484" y="-264"/>
      <point x="459" y="-281" type="curve" smooth="yes"/>
      <point x="427" y="-308"/>
      <point x="394" y="-325"/>
      <point x="364" y="-325" type="curve" smooth="yes"/>
      <point x="333" y="-325"/>
      <point x="307" y="-303"/>
      <point x="307" y="-251" type="curve" smooth="yes"/>
      <point x="307" y="-164"/>
      <point x="380" y="-28"/>
      <point x="531" y="44" type="curve"/>
    </contour>
    <component base="i" xOffset="6" yOffset="1"/>
  </outline>
</glyph>
<glyph name="Uogonek" format="2">
  <advance width="1496"/>
  <unicode hex="0172"/>
  <outline>
    <contour>
      <point x="904" y="52" type="line"/>
      <point x="595" y="-32"/>
      <point x="446" y="-129"/>
      <point x="407" y="-273" type="curve" smooth="yes"/>
      <point x="370" y="-408"/>
      <point x="445" y="-483"/>
      <point x="611" y="-483" type="curve" smooth="yes"/>
      <point x="743" y="-483"/>
      <point x="853" y="-424"/>
      <point x="910" y="-351" type="curve" smooth="yes"/>
      <point x="943" y="-310"/>
      <point x="931" y="-283"/>
      <point x="911" y="-276" type="curve" smooth="yes"/>
      <point x="892" y="-269"/>
      <point x="873" y="-278"/>
      <point x="850" y="-295" type="curve" smooth="yes"/>
      <point x="820" y="-323"/>
      <point x="789" y="-339"/>
      <point x="757" y="-339" type="curve" smooth="yes"/>
      <point x="711" y="-339"/>
      <point x="683" y="-305"/>
      <point x="702" y="-237" type="curve" smooth="yes"/>
      <point x="732" y="-113"/>
      <point x="795" y="-39"/>
      <point x="917" y="18" type="curve"/>
    </contour>
    <component base="U" xOffset="7"/>
  </outline>
</glyph>
<glyph name="uogonek" format="2">
  <advance width="1328"/>
  <unicode hex="0173"/>
  <outline>
    <contour>
      <point x="1097" y="81" type="line"/>
      <point x="722" y="-40"/>
      <point x="579" y="-172"/>
      <point x="579" y="-322" type="curve" smooth="yes"/>
      <point x="579" y="-418"/>
      <point x="652" y="-473"/>
      <point x="798" y="-473" type="curve" smooth="yes"/>
      <point x="935" y="-473"/>
      <point x="1050" y="-413"/>
      <point x="1108" y="-337" type="curve" smooth="yes"/>
      <point x="1142" y="-295"/>
      <point x="1130" y="-268"/>
      <point x="1110" y="-261" type="curve" smooth="yes"/>
      <point x="1090" y="-254"/>
      <point x="1072" y="-264"/>
      <point x="1048" y="-281" type="curve" smooth="yes"/>
      <point x="1016" y="-308"/>
      <point x="983" y="-325"/>
      <point x="954" y="-325" type="curve" smooth="yes"/>
      <point x="920" y="-325"/>
      <point x="895" y="-304"/>
      <point x="895" y="-254" type="curve" smooth="yes"/>
      <point x="895" y="-163"/>
      <point x="964" y="-29"/>
      <point x="1111" y="48" type="curve"/>
    </contour>
    <component base="u" xOffset="6"/>
  </outline>
</glyph>
<glyph name="Schwa" format="2">
  <advance width="1465"/>
  <unicode hex="018F"/>
  <outline>
    <contour>
      <point x="65" y="564" type="curve" smooth="yes"/>
      <point x="-26" y="234"/>
      <point x="137" y="-31"/>
      <point x="537" y="-31" type="curve" smooth="yes"/>
      <point x="1000" y="-31"/>
      <point x="1353" y="274"/>
      <point x="1479" y="722" type="curve" smooth="yes"/>
      <point x="1597" y="1142"/>
      <point x="1402" y="1431"/>
      <point x="985" y="1431" type="curve" smooth="yes"/>
      <point x="607" y="1431"/>
      <point x="294" y="1212"/>
      <point x="225" y="954" type="curve" smooth="yes"/>
      <point x="212" y="916"/>
      <point x="231" y="904"/>
      <point x="253" y="902" type="curve" smooth="yes"/>
      <point x="273" y="900"/>
      <point x="302" y="905"/>
      <point x="343" y="942" type="curve" smooth="yes"/>
      <point x="434" y="1088"/>
      <point x="598" y="1177"/>
      <point x="747" y="1177" type="curve" smooth="yes"/>
      <point x="985" y="1177"/>
      <point x="1093" y="994"/>
      <point x="983" y="588" type="curve" smooth="yes"/>
      <point x="886" y="239"/>
      <point x="759" y="115"/>
      <point x="652" y="115" type="curve" smooth="yes"/>
      <point x="532" y="115"/>
      <point x="465" y="245"/>
      <point x="539" y="531" type="curve" smooth="yes"/>
      <point x="555" y="584"/>
      <point x="585" y="606"/>
      <point x="636" y="606" type="curve" smooth="yes"/>
      <point x="1093" y="606" type="line"/>
      <point x="1130" y="725" type="line"/>
      <point x="301" y="725" type="line" smooth="yes"/>
      <point x="183" y="725"/>
      <point x="97" y="666"/>
    </contour>
  </outline>
</glyph>
<glyph name="Uhorn" format="2">
  <advance width="1496"/>
  <unicode hex="01AF"/>
  <anchor x="1086" y="1479.0" name="center"/>
  <outline>
    <contour>
      <point x="1967" y="1601" type="curve" smooth="yes"/>
      <point x="1986" y="1699"/>
      <point x="1952" y="1769"/>
      <point x="1874" y="1774" type="curve" smooth="yes"/>
      <point x="1787" y="1778"/>
      <point x="1741" y="1721"/>
      <point x="1722" y="1624" type="curve" smooth="yes"/>
      <point x="1698" y="1501" type="line" smooth="yes"/>
      <point x="1685" y="1431"/>
      <point x="1640" y="1398"/>
      <point x="1545" y="1398" type="curve" smooth="yes"/>
      <point x="1533" y="1285" type="line"/>
      <point x="1781" y="1297"/>
      <point x="1929" y="1403"/>
    </contour>
    <contour>
      <point x="1114" y="468" type="line" smooth="yes"/>
      <point x="1046" y="229"/>
      <point x="937" y="150"/>
      <point x="807" y="150" type="curve" smooth="yes"/>
      <point x="698" y="150"/>
      <point x="631" y="214"/>
      <point x="633" y="345" type="curve" smooth="yes"/>
      <point x="633" y="410"/>
      <point x="648" y="492"/>
      <point x="687" y="635" type="curve" smooth="yes"/>
      <point x="814" y="1121" type="line" smooth="yes"/>
      <point x="837" y="1198"/>
      <point x="849" y="1233"/>
      <point x="890" y="1248" type="curve" smooth="yes"/>
      <point x="925" y="1257" type="line" smooth="yes"/>
      <point x="962" y="1271"/>
      <point x="982" y="1309"/>
      <point x="982" y="1342" type="curve" smooth="yes"/>
      <point x="983" y="1381"/>
      <point x="958" y="1401"/>
      <point x="906" y="1401" type="curve" smooth="yes"/>
      <point x="340" y="1401" type="line" smooth="yes"/>
      <point x="298" y="1401"/>
      <point x="272" y="1371"/>
      <point x="272" y="1338" type="curve" smooth="yes"/>
      <point x="271" y="1303"/>
      <point x="283" y="1290"/>
      <point x="317" y="1265" type="curve" smooth="yes"/>
      <point x="348" y="1254" type="line" smooth="yes"/>
      <point x="373" y="1239"/>
      <point x="381" y="1184"/>
      <point x="364" y="1126" type="curve" smooth="yes"/>
      <point x="236" y="633" type="line" smooth="yes"/>
      <point x="213" y="547"/>
      <point x="179" y="421"/>
      <point x="177" y="337" type="curve" smooth="yes"/>
      <point x="175" y="136"/>
      <point x="327" y="-26"/>
      <point x="634" y="-26" type="curve" smooth="yes"/>
      <point x="967" y="-26"/>
      <point x="1180" y="111"/>
      <point x="1279" y="455" type="curve" smooth="yes"/>
      <point x="1446" y="1041" type="line" smooth="yes"/>
      <point x="1494" y="1213"/>
      <point x="1547" y="1273"/>
      <point x="1616" y="1290" type="curve" smooth="yes"/>
      <point x="1634" y="1294" type="line" smooth="yes"/>
      <point x="1662" y="1300"/>
      <point x="1677" y="1327"/>
      <point x="1677" y="1364" type="curve" smooth="yes"/>
      <point x="1677" y="1385"/>
      <point x="1654" y="1401"/>
      <point x="1604" y="1401" type="curve" smooth="yes"/>
      <point x="1228" y="1401" type="line" smooth="yes"/>
      <point x="1171" y="1401"/>
      <point x="1141" y="1369"/>
      <point x="1140" y="1332" type="curve" smooth="yes"/>
      <point x="1140" y="1296"/>
      <point x="1154" y="1278"/>
      <point x="1203" y="1253" type="curve" smooth="yes"/>
      <point x="1224" y="1245" type="line" smooth="yes"/>
      <point x="1294" y="1218"/>
      <point x="1306" y="1145"/>
      <point x="1272" y="1019" type="curve" smooth="yes"/>
    </contour>
  </outline>
</glyph>
<glyph name="Oogonek" format="2">
  <advance width="1574"/>
  <unicode hex="01EA"/>
  <outline>
    <contour>
      <point x="886" y="41" type="line"/>
      <point x="568" y="-36"/>
      <point x="426" y="-142"/>
      <point x="389" y="-279" type="curve" smooth="yes"/>
      <point x="352" y="-414"/>
      <point x="427" y="-489"/>
      <point x="594" y="-489" type="curve" smooth="yes"/>
      <point x="725" y="-489"/>
      <point x="835" y="-431"/>
      <point x="892" y="-357" type="curve" smooth="yes"/>
      <point x="925" y="-316"/>
      <point x="913" y="-289"/>
      <point x="893" y="-282" type="curve" smooth="yes"/>
      <point x="874" y="-275"/>
      <point x="855" y="-285"/>
      <point x="832" y="-302" type="curve" smooth="yes"/>
      <point x="802" y="-329"/>
      <point x="771" y="-345"/>
      <point x="739" y="-345" type="curve" smooth="yes"/>
      <point x="693" y="-345"/>
      <point x="666" y="-312"/>
      <point x="684" y="-243" type="curve" smooth="yes"/>
      <point x="714" y="-120"/>
      <point x="774" y="-40"/>
      <point x="899" y="3" type="curve"/>
    </contour>
    <component base="O" xOffset="7"/>
  </outline>
</glyph>
<glyph name="dotlessj" format="2">
  <advance width="697"/>
  <unicode hex="0237"/>
  <anchor x="519" y="1000" name="center"/>
  <outline>
    <contour>
      <point x="635" y="669" type="line" smooth="yes"/>
      <point x="692" y="860"/>
      <point x="646" y="975"/>
      <point x="460" y="975" type="curve" smooth="yes"/>
      <point x="303" y="975"/>
      <point x="154" y="876"/>
      <point x="76" y="753" type="curve" smooth="yes"/>
      <point x="44" y="711"/>
      <point x="46" y="672"/>
      <point x="73" y="656" type="curve" smooth="yes"/>
      <point x="88" y="648"/>
      <point x="110" y="647"/>
      <point x="138" y="662" type="curve" smooth="yes"/>
      <point x="173" y="695"/>
      <point x="193" y="707"/>
      <point x="212" y="707" type="curve" smooth="yes"/>
      <point x="249" y="707"/>
      <point x="238" y="658"/>
      <point x="220" y="596" type="curve" smooth="yes"/>
      <point x="115" y="214" type="line" smooth="yes"/>
      <point x="50" y="-29"/>
      <point x="214" y="-103"/>
      <point x="214" y="-176" type="curve" smooth="yes"/>
      <point x="214" y="-215"/>
      <point x="186" y="-245"/>
      <point x="144" y="-245" type="curve" smooth="yes"/>
      <point x="69" y="-245"/>
      <point x="11" y="-163"/>
      <point x="-87" y="-163" type="curve" smooth="yes"/>
      <point x="-194" y="-163"/>
      <point x="-260" y="-228"/>
      <point x="-260" y="-318" type="curve" smooth="yes"/>
      <point x="-260" y="-421"/>
      <point x="-180" y="-490"/>
      <point x="-28" y="-490" type="curve" smooth="yes"/>
      <point x="201" y="-490"/>
      <point x="337" y="-358"/>
      <point x="405" y="-129" type="curve" smooth="yes"/>
    </contour>
  </outline>
</glyph>
<glyph name="minute" format="2">
  <advance width="629"/>
  <unicode hex="2032"/>
  <outline>
    <contour>
      <point x="247" y="759" type="curve" smooth="yes"/>
      <point x="284" y="759"/>
      <point x="323" y="780"/>
      <point x="377" y="841" type="curve" smooth="yes"/>
      <point x="741" y="1338" type="line" smooth="yes"/>
      <point x="823" y="1435"/>
      <point x="790" y="1535"/>
      <point x="680" y="1535" type="curve" smooth="yes"/>
      <point x="577" y="1535"/>
      <point x="510" y="1477"/>
      <point x="469" y="1391" type="curve" smooth="yes"/>
      <point x="218" y="848" type="line" smooth="yes"/>
      <point x="190" y="789"/>
      <point x="206" y="759"/>
    </contour>
  </outline>
</glyph>
<glyph name="trademark" format="2">
  <advance width="2177"/>
  <unicode hex="2122"/>
  <outline>
    <contour>
      <point x="1627" y="833" type="line"/>
      <point x="1603" y="1307" type="line" smooth="yes"/>
      <point x="1596" y="1373"/>
      <point x="1574" y="1401"/>
      <point x="1507" y="1401" type="curve" smooth="yes"/>
      <point x="1241" y="1401" type="line" smooth="yes"/>
      <point x="1197" y="1401"/>
      <point x="1171" y="1382"/>
      <point x="1161" y="1351" type="curve" smooth="yes"/>
      <point x="1151" y="1324"/>
      <point x="1161" y="1308"/>
      <point x="1180" y="1299" type="curve" smooth="yes"/>
      <point x="1198" y="1289" type="line" smooth="yes"/>
      <point x="1213" y="1279"/>
      <point x="1216" y="1261"/>
      <point x="1202" y="1213" type="curve" smooth="yes"/>
      <point x="1019" y="700" type="line" smooth="yes"/>
      <point x="1006" y="660"/>
      <point x="984" y="645"/>
      <point x="957" y="632" type="curve" smooth="yes"/>
      <point x="946" y="627" type="line" smooth="yes"/>
      <point x="916" y="614"/>
      <point x="898" y="600"/>
      <point x="888" y="571" type="curve" smooth="yes"/>
      <point x="877" y="540"/>
      <point x="889" y="520"/>
      <point x="935" y="520" type="curve" smooth="yes"/>
      <point x="1103" y="520" type="line" smooth="yes"/>
      <point x="1149" y="520"/>
      <point x="1172" y="540"/>
      <point x="1183" y="573" type="curve" smooth="yes"/>
      <point x="1191" y="594"/>
      <point x="1188" y="609"/>
      <point x="1176" y="618" type="curve" smooth="yes"/>
      <point x="1165" y="629" type="line" smooth="yes"/>
      <point x="1140" y="645"/>
      <point x="1125" y="662"/>
      <point x="1138" y="699" type="curve" smooth="yes"/>
      <point x="1349" y="1282" type="line"/>
      <point x="1263" y="1268" type="line"/>
      <point x="1308" y="626" type="line" smooth="yes"/>
      <point x="1317" y="545"/>
      <point x="1342" y="536"/>
      <point x="1387" y="536" type="curve" smooth="yes"/>
      <point x="1431" y="536"/>
      <point x="1460" y="549"/>
      <point x="1516" y="622" type="curve" smooth="yes"/>
      <point x="1947" y="1296" type="line"/>
      <point x="1851" y="1290" type="line"/>
      <point x="1712" y="682" type="line" smooth="yes"/>
      <point x="1706" y="652"/>
      <point x="1694" y="644"/>
      <point x="1674" y="634" type="curve" smooth="yes"/>
      <point x="1650" y="624" type="line" smooth="yes"/>
      <point x="1619" y="611"/>
      <point x="1603" y="594"/>
      <point x="1596" y="571" type="curve" smooth="yes"/>
      <point x="1585" y="540"/>
      <point x="1600" y="520"/>
      <point x="1643" y="520" type="curve" smooth="yes"/>
      <point x="2011" y="520" type="line" smooth="yes"/>
      <point x="2052" y="520"/>
      <point x="2081" y="541"/>
      <point x="2092" y="574" type="curve" smooth="yes"/>
      <point x="2101" y="599"/>
      <point x="2094" y="615"/>
      <point x="2076" y="624" type="curve" smooth="yes"/>
      <point x="2060" y="634" type="line" smooth="yes"/>
      <point x="2047" y="644"/>
      <point x="2043" y="651"/>
      <point x="2049" y="681" type="curve" smooth="yes"/>
      <point x="2173" y="1243" type="line" smooth="yes"/>
      <point x="2178" y="1268"/>
      <point x="2194" y="1278"/>
      <point x="2214" y="1288" type="curve" smooth="yes"/>
      <point x="2237" y="1299" type="line" smooth="yes"/>
      <point x="2261" y="1309"/>
      <point x="2280" y="1324"/>
      <point x="2289" y="1351" type="curve" smooth="yes"/>
      <point x="2300" y="1381"/>
      <point x="2284" y="1401"/>
      <point x="2241" y="1401" type="curve" smooth="yes"/>
      <point x="1976" y="1401" type="line" smooth="yes"/>
      <point x="1908" y="1401"/>
      <point x="1872" y="1378"/>
      <point x="1815" y="1305" type="curve" smooth="yes"/>
      <point x="1510" y="826" type="line"/>
    </contour>
    <contour>
      <point x="546" y="1377" type="line"/>
      <point x="341" y="674" type="line" smooth="yes"/>
      <point x="333" y="650"/>
      <point x="320" y="642"/>
      <point x="302" y="633" type="curve" smooth="yes"/>
      <point x="282" y="623" type="line" smooth="yes"/>
      <point x="256" y="610"/>
      <point x="239" y="593"/>
      <point x="231" y="570" type="curve" smooth="yes"/>
      <point x="220" y="538"/>
      <point x="235" y="519"/>
      <point x="278" y="519" type="curve" smooth="yes"/>
      <point x="638" y="519" type="line" smooth="yes"/>
      <point x="683" y="519"/>
      <point x="708" y="537"/>
      <point x="719" y="570" type="curve" smooth="yes"/>
      <point x="727" y="594"/>
      <point x="722" y="610"/>
      <point x="701" y="623" type="curve" smooth="yes"/>
      <point x="689" y="633" type="line" smooth="yes"/>
      <point x="675" y="642"/>
      <point x="667" y="650"/>
      <point x="674" y="674" type="curve" smooth="yes"/>
      <point x="861" y="1322" type="line"/>
    </contour>
    <contour>
      <point x="431" y="1446" type="curve" smooth="yes"/>
      <point x="282" y="1446"/>
      <point x="196" y="1356"/>
      <point x="190" y="1246" type="curve" smooth="yes"/>
      <point x="187" y="1170"/>
      <point x="229" y="1127"/>
      <point x="294" y="1127" type="curve" smooth="yes"/>
      <point x="350" y="1127"/>
      <point x="388" y="1164"/>
      <point x="390" y="1211" type="curve" smooth="yes"/>
      <point x="390" y="1244"/>
      <point x="382" y="1261"/>
      <point x="383" y="1289" type="curve" smooth="yes"/>
      <point x="385" y="1335"/>
      <point x="407" y="1358"/>
      <point x="447" y="1358" type="curve" smooth="yes"/>
      <point x="556" y="1358"/>
      <point x="835" y="1265"/>
      <point x="954" y="1265" type="curve" smooth="yes"/>
      <point x="1059" y="1265"/>
      <point x="1126" y="1328"/>
      <point x="1131" y="1427" type="curve" smooth="yes"/>
      <point x="1134" y="1496"/>
      <point x="1096" y="1534"/>
      <point x="1045" y="1534" type="curve" smooth="yes"/>
      <point x="980" y="1534"/>
      <point x="950" y="1498"/>
      <point x="943" y="1451" type="curve" smooth="yes"/>
      <point x="941" y="1431"/>
      <point x="943" y="1416"/>
      <point x="940" y="1403" type="curve" smooth="yes"/>
      <point x="934" y="1382"/>
      <point x="921" y="1373"/>
      <point x="899" y="1373" type="curve" smooth="yes"/>
      <point x="810" y="1373"/>
      <point x="604" y="1446"/>
    </contour>
  </outline>
</glyph>
<glyph name="b.alt" format="2">
  <advance width="1215"/>
  <outline>
    <contour>
      <point x="291" y="1068" type="curve" smooth="yes"/>
      <point x="50" y="192" type="line" smooth="yes"/>
      <point x="1" y="40"/>
      <point x="41" y="-6"/>
      <point x="115" y="-6" type="curve" smooth="yes"/>
      <point x="162" y="-6"/>
      <point x="197" y="16"/>
      <point x="221" y="36" type="curve" smooth="yes"/>
      <point x="418" y="166" type="line"/>
      <point x="343" y="228" type="line"/>
      <point x="343" y="43"/>
      <point x="456" y="-24"/>
      <point x="603" y="-24" type="curve" smooth="yes"/>
      <point x="906" y="-24"/>
      <point x="1188" y="292"/>
      <point x="1188" y="651" type="curve" smooth="yes"/>
      <point x="1188" y="835"/>
      <point x="1088" y="951"/>
      <point x="914" y="951" type="curve" smooth="yes"/>
      <point x="744" y="951"/>
      <point x="593" y="839"/>
      <point x="497" y="592" type="curve"/>
      <point x="527" y="584" type="line"/>
      <point x="717" y="1200" type="line" smooth="yes"/>
      <point x="767" y="1361"/>
      <point x="704" y="1451"/>
      <point x="547" y="1451" type="curve" smooth="yes"/>
      <point x="402" y="1451"/>
      <point x="233" y="1358"/>
      <point x="154" y="1235" type="curve" smooth="yes"/>
      <point x="123" y="1193"/>
      <point x="125" y="1155"/>
      <point x="150" y="1140" type="curve" smooth="yes"/>
      <point x="166" y="1132"/>
      <point x="186" y="1132"/>
      <point x="215" y="1146" type="curve" smooth="yes"/>
      <point x="249" y="1178"/>
      <point x="267" y="1189"/>
      <point x="287" y="1189" type="curve" smooth="yes"/>
      <point x="324" y="1189"/>
      <point x="319" y="1161"/>
    </contour>
    <contour>
      <point x="716" y="759" type="curve" smooth="yes"/>
      <point x="750" y="762"/>
      <point x="780" y="736"/>
      <point x="780" y="653" type="curve" smooth="yes"/>
      <point x="780" y="405"/>
      <point x="634" y="116"/>
      <point x="534" y="116" type="curve" smooth="yes"/>
      <point x="496" y="116"/>
      <point x="472" y="152"/>
      <point x="474" y="221" type="curve" smooth="yes"/>
      <point x="481" y="460"/>
      <point x="615" y="751"/>
    </contour>
  </outline>
</glyph>
<glyph name="breve.cap" format="2">
  <advance width="716"/>
  <anchor x="382.10461538461544" y="954" name="center"/>
  <outline>
    <contour>
      <point x="415" y="1236" type="curve" smooth="yes"/>
      <point x="335" y="1236"/>
      <point x="285" y="1265"/>
      <point x="254" y="1333" type="curve" smooth="yes"/>
      <point x="242" y="1358"/>
      <point x="229" y="1372"/>
      <point x="205" y="1372" type="curve" smooth="yes"/>
      <point x="167" y="1372"/>
      <point x="138" y="1341"/>
      <point x="129" y="1296" type="curve" smooth="yes"/>
      <point x="99" y="1120"/>
      <point x="194" y="1022"/>
      <point x="358" y="1022" type="curve" smooth="yes"/>
      <point x="522" y="1022"/>
      <point x="669" y="1120"/>
      <point x="730" y="1296" type="curve" smooth="yes"/>
      <point x="748" y="1341"/>
      <point x="736" y="1372"/>
      <point x="698" y="1372" type="curve" smooth="yes"/>
      <point x="676" y="1372"/>
      <point x="654" y="1358"/>
      <point x="627" y="1333" type="curve" smooth="yes"/>
      <point x="563" y="1268"/>
      <point x="500" y="1236"/>
    </contour>
  </outline>
</glyph>
<glyph name="circumflexgrave" format="2">
  <advance width="832"/>
  <anchor x="455" y="1062" name="center"/>
  <outline>
    <contour>
      <point x="563" y="1254" type="line"/>
      <point x="183" y="1062" type="line" smooth="yes"/>
      <point x="134" y="1039"/>
      <point x="97" y="1038"/>
      <point x="79" y="1057" type="curve" smooth="yes"/>
      <point x="64" y="1074"/>
      <point x="65" y="1109"/>
      <point x="111" y="1140" type="curve" smooth="yes"/>
      <point x="363" y="1367" type="line" smooth="yes"/>
      <point x="421" y="1408"/>
      <point x="457" y="1440"/>
      <point x="514" y="1440" type="curve" smooth="yes"/>
      <point x="570" y="1440"/>
      <point x="587" y="1408"/>
      <point x="622" y="1367" type="curve" smooth="yes"/>
      <point x="764" y="1140" type="line" smooth="yes"/>
      <point x="790" y="1109"/>
      <point x="771" y="1074"/>
      <point x="746" y="1057" type="curve" smooth="yes"/>
      <point x="717" y="1038"/>
      <point x="681" y="1039"/>
      <point x="645" y="1062" type="curve" smooth="yes"/>
      <point x="366" y="1254" type="line"/>
    </contour>
    <contour>
      <point x="922" y="1512" type="line" smooth="yes"/>
      <point x="920" y="1613"/>
      <point x="890" y="1677"/>
      <point x="800" y="1674" type="curve" smooth="yes"/>
      <point x="718" y="1670"/>
      <point x="654" y="1608"/>
      <point x="639" y="1545" type="curve" smooth="yes"/>
      <point x="621" y="1475"/>
      <point x="650" y="1431"/>
      <point x="716" y="1378" type="curve" smooth="yes"/>
      <point x="829" y="1279" type="line" smooth="yes"/>
      <point x="852" y="1264"/>
      <point x="879" y="1260"/>
      <point x="899" y="1275" type="curve" smooth="yes"/>
      <point x="924" y="1290"/>
      <point x="926" y="1312"/>
      <point x="926" y="1335" type="curve" smooth="yes"/>
    </contour>
  </outline>
</glyph>
<glyph name="circumflexhook" format="2">
  <advance width="869"/>
  <anchor x="455" y="1062" name="center"/>
  <outline>
    <contour>
      <point x="563" y="1254" type="line"/>
      <point x="183" y="1062" type="line" smooth="yes"/>
      <point x="134" y="1039"/>
      <point x="97" y="1038"/>
      <point x="79" y="1057" type="curve" smooth="yes"/>
      <point x="64" y="1074"/>
      <point x="65" y="1109"/>
      <point x="111" y="1140" type="curve" smooth="yes"/>
      <point x="363" y="1367" type="line" smooth="yes"/>
      <point x="421" y="1408"/>
      <point x="457" y="1440"/>
      <point x="514" y="1440" type="curve" smooth="yes"/>
      <point x="570" y="1440"/>
      <point x="587" y="1408"/>
      <point x="622" y="1367" type="curve" smooth="yes"/>
      <point x="764" y="1140" type="line" smooth="yes"/>
      <point x="790" y="1109"/>
      <point x="771" y="1074"/>
      <point x="746" y="1057" type="curve" smooth="yes"/>
      <point x="717" y="1038"/>
      <point x="681" y="1039"/>
      <point x="645" y="1062" type="curve" smooth="yes"/>
      <point x="366" y="1254" type="line"/>
    </contour>
    <contour>
      <point x="735" y="1316" type="curve" smooth="yes"/>
      <point x="741" y="1336"/>
      <point x="757" y="1355"/>
      <point x="799" y="1360" type="curve" smooth="yes"/>
      <point x="886" y="1370"/>
      <point x="914" y="1410"/>
      <point x="931" y="1482" type="curve" smooth="yes"/>
      <point x="946" y="1542"/>
      <point x="936" y="1566"/>
      <point x="901" y="1566" type="curve" smooth="yes"/>
      <point x="869" y="1566"/>
      <point x="847" y="1547"/>
      <point x="838" y="1514" type="curve" smooth="yes"/>
      <point x="833" y="1491" type="line" smooth="yes"/>
      <point x="819" y="1439"/>
      <point x="777" y="1411"/>
      <point x="718" y="1411" type="curve" smooth="yes"/>
      <point x="663" y="1411"/>
      <point x="636" y="1441"/>
      <point x="649" y="1492" type="curve" smooth="yes"/>
      <point x="672" y="1576"/>
      <point x="792" y="1646"/>
      <point x="933" y="1646" type="curve" smooth="yes"/>
      <point x="1105" y="1646"/>
      <point x="1165" y="1578"/>
      <point x="1138" y="1479" type="curve" smooth="yes"/>
      <point x="1103" y="1351"/>
      <point x="963" y="1273"/>
      <point x="778" y="1273" type="curve" smooth="yes"/>
      <point x="739" y="1273"/>
      <point x="727" y="1289"/>
    </contour>
  </outline>
</glyph>
<glyph name="hook.cap" format="2">
  <advance width="639"/>
  <anchor x="322" y="957" name="center"/>
  <outline>
    <contour>
      <point x="210" y="1071" type="curve" smooth="yes"/>
      <point x="216" y="1091"/>
      <point x="233" y="1109"/>
      <point x="275" y="1115" type="curve" smooth="yes"/>
      <point x="367" y="1125"/>
      <point x="399" y="1172"/>
      <point x="419" y="1256" type="curve" smooth="yes"/>
      <point x="436" y="1326"/>
      <point x="425" y="1351"/>
      <point x="388" y="1351" type="curve" smooth="yes"/>
      <point x="355" y="1351"/>
      <point x="331" y="1332"/>
      <point x="322" y="1296" type="curve" smooth="yes"/>
      <point x="314" y="1263" type="line" smooth="yes"/>
      <point x="299" y="1205"/>
      <point x="255" y="1174"/>
      <point x="191" y="1174" type="curve" smooth="yes"/>
      <point x="133" y="1174"/>
      <point x="102" y="1207"/>
      <point x="117" y="1264" type="curve" smooth="yes"/>
      <point x="141" y="1355"/>
      <point x="269" y="1429"/>
      <point x="420" y="1429" type="curve" smooth="yes"/>
      <point x="603" y="1429"/>
      <point x="667" y="1356"/>
      <point x="639" y="1250" type="curve" smooth="yes"/>
      <point x="602" y="1113"/>
      <point x="454" y="1029"/>
      <point x="255" y="1029" type="curve" smooth="yes"/>
      <point x="215" y="1029"/>
      <point x="203" y="1045"/>
    </contour>
  </outline>
</glyph>
<glyph name="l.alt" format="2">
  <advance width="715"/>
  <outline>
    <contour>
      <point x="757" y="1213" type="line" smooth="yes"/>
      <point x="812" y="1380"/>
      <point x="744" y="1469"/>
      <point x="584" y="1469" type="curve" smooth="yes"/>
      <point x="431" y="1469"/>
      <point x="259" y="1380"/>
      <point x="176" y="1251" type="curve" smooth="yes"/>
      <point x="146" y="1208"/>
      <point x="147" y="1170"/>
      <point x="173" y="1155" type="curve" smooth="yes"/>
      <point x="188" y="1146"/>
      <point x="210" y="1146"/>
      <point x="238" y="1161" type="curve" smooth="yes"/>
      <point x="272" y="1193"/>
      <point x="292" y="1204"/>
      <point x="311" y="1204" type="curve" smooth="yes"/>
      <point x="348" y="1204"/>
      <point x="346" y="1173"/>
      <point x="316" y="1082" type="curve" smooth="yes"/>
      <point x="68" y="276" type="line" smooth="yes"/>
      <point x="6" y="91"/>
      <point x="47" y="-26"/>
      <point x="244" y="-26" type="curve" smooth="yes"/>
      <point x="423" y="-26"/>
      <point x="552" y="59"/>
      <point x="617" y="180" type="curve" smooth="yes"/>
      <point x="646" y="231"/>
      <point x="643" y="266"/>
      <point x="622" y="282" type="curve" smooth="yes"/>
      <point x="605" y="294"/>
      <point x="588" y="293"/>
      <point x="567" y="277" type="curve" smooth="yes"/>
      <point x="538" y="249"/>
      <point x="524" y="240"/>
      <point x="504" y="240" type="curve" smooth="yes"/>
      <point x="475" y="240"/>
      <point x="464" y="261"/>
      <point x="494" y="360" type="curve" smooth="yes"/>
    </contour>
  </outline>
</glyph>
<glyph name="ring.cap" format="2">
  <advance width="609"/>
  <anchor x="340.5646017699115" y="943" name="center"/>
  <outline>
    <contour>
      <point x="304" y="1017" type="curve" smooth="yes"/>
      <point x="448" y="1017"/>
      <point x="571" y="1088"/>
      <point x="604" y="1210" type="curve" smooth="yes"/>
      <point x="636" y="1331"/>
      <point x="550" y="1402"/>
      <point x="407" y="1402" type="curve" smooth="yes"/>
      <point x="267" y="1402"/>
      <point x="142" y="1335"/>
      <point x="108" y="1210" type="curve" smooth="yes"/>
      <point x="75" y="1084"/>
      <point x="164" y="1017"/>
    </contour>
    <contour>
      <point x="384" y="1315" type="curve" smooth="yes"/>
      <point x="424" y="1315"/>
      <point x="441" y="1280"/>
      <point x="424" y="1210" type="curve" smooth="yes"/>
      <point x="408" y="1140"/>
      <point x="372" y="1103"/>
      <point x="331" y="1103" type="curve" smooth="yes"/>
      <point x="290" y="1103"/>
      <point x="271" y="1139"/>
      <point x="288" y="1210" type="curve" smooth="yes"/>
      <point x="305" y="1281"/>
      <point x="342" y="1315"/>
    </contour>
  </outline>
</glyph>
<glyph name="ruble" format="2">
  <advance width="1416"/>
  <outline>
    <contour>
      <point x="1335" y="1100" type="curve" smooth="yes"/>
      <point x="1418" y="1276"/>
      <point x="1296" y="1342"/>
      <point x="1024" y="1246" type="curve" smooth="yes"/>
      <point x="1005" y="1153"/>
      <point x="522" y="1112"/>
      <point x="486" y="1112" type="curve" smooth="yes"/>
      <point x="429" y="1112"/>
      <point x="338" y="1082"/>
      <point x="338" y="1037" type="curve"/>
      <point x="338" y="1011"/>
      <point x="344" y="987"/>
      <point x="371" y="973" type="curve"/>
      <point x="468" y="962" type="line" smooth="yes"/>
      <point x="594" y="953"/>
      <point x="665" y="990"/>
      <point x="674" y="1049" type="curve" smooth="yes"/>
      <point x="695" y="1147"/>
      <point x="493" y="696"/>
      <point x="374" y="696" type="curve" smooth="yes"/>
      <point x="366" y="668"/>
      <point x="198" y="659"/>
      <point x="177" y="649" type="curve" smooth="yes"/>
      <point x="175" y="649"/>
      <point x="151" y="638"/>
      <point x="150" y="636" type="curve" smooth="yes"/>
      <point x="122" y="622"/>
      <point x="97" y="597"/>
      <point x="100" y="562" type="curve" smooth="yes"/>
      <point x="100" y="523"/>
      <point x="132" y="494"/>
      <point x="192" y="494" type="curve" smooth="yes"/>
      <point x="200" y="492"/>
      <point x="580" y="487"/>
      <point x="579" y="481" type="curve" smooth="yes"/>
      <point x="636" y="481"/>
      <point x="572" y="51"/>
      <point x="572" y="94" type="curve" smooth="yes"/>
      <point x="571" y="118"/>
      <point x="554" y="136"/>
      <point x="516" y="141" type="curve" smooth="yes"/>
      <point x="452" y="148" type="line" smooth="yes"/>
      <point x="432" y="151"/>
      <point x="423" y="164"/>
      <point x="436" y="208" type="curve" smooth="yes"/>
      <point x="436" y="206"/>
      <point x="586" y="694"/>
      <point x="588" y="694" type="curve" smooth="yes"/>
      <point x="610" y="769"/>
      <point x="824" y="794"/>
      <point x="869" y="794" type="curve" smooth="yes"/>
      <point x="939" y="794"/>
      <point x="984" y="757"/>
      <point x="963" y="654" type="curve" smooth="yes"/>
      <point x="934" y="518"/>
      <point x="832" y="456"/>
      <point x="738" y="457" type="curve" smooth="yes"/>
      <point x="569" y="461" type="line" smooth="yes"/>
      <point x="561" y="463"/>
      <point x="517" y="384"/>
      <point x="519" y="391" type="curve" smooth="yes"/>
      <point x="871" y="865" type="line"/>
      <point x="1134" y="865"/>
      <point x="1300" y="956"/>
    </contour>
    <contour>
      <point x="26" y="394" type="curve" smooth="yes"/>
      <point x="18" y="366"/>
      <point x="34" y="349"/>
      <point x="64" y="349" type="curve" smooth="yes"/>
      <point x="808" y="349" type="line" smooth="yes"/>
      <point x="839" y="349"/>
      <point x="866" y="366"/>
      <point x="874" y="394" type="curve" smooth="yes"/>
      <point x="881" y="419"/>
      <point x="864" y="437"/>
      <point x="833" y="437" type="curve" smooth="yes"/>
      <point x="91" y="437" type="line" smooth="yes"/>
      <point x="62" y="437"/>
      <point x="33" y="419"/>
    </contour>
    <contour>
      <point x="90" y="624" type="curve" smooth="yes"/>
      <point x="82" y="596"/>
      <point x="98" y="579"/>
      <point x="128" y="579" type="curve" smooth="yes"/>
      <point x="321" y="579" type="line"/>
      <point x="334" y="667" type="line"/>
      <point x="155" y="667" type="line" smooth="yes"/>
      <point x="126" y="667"/>
      <point x="98" y="649"/>
    </contour>
  </outline>
</glyph>
<glyph name="v.alt" format="2">
  <advance width="1154"/>
  <outline>
    <contour>
      <point x="205" y="118" type="curve" smooth="yes"/>
      <point x="207" y="262"/>
      <point x="208" y="416"/>
      <point x="209" y="579" type="curve" smooth="yes"/>
      <point x="206" y="628"/>
      <point x="197" y="637"/>
      <point x="181" y="637" type="curve" smooth="yes"/>
      <point x="164" y="637"/>
      <point x="145" y="611"/>
      <point x="130" y="581" type="curve" smooth="yes"/>
      <point x="115" y="563"/>
      <point x="99" y="555"/>
      <point x="74" y="555" type="curve" smooth="yes"/>
      <point x="40" y="556"/>
      <point x="23" y="579"/>
      <point x="27" y="619" type="curve" smooth="yes"/>
      <point x="54" y="778"/>
      <point x="249" y="941"/>
      <point x="459" y="941" type="curve" smooth="yes"/>
      <point x="568" y="941"/>
      <point x="604" y="864"/>
      <point x="609" y="725" type="curve" smooth="yes"/>
      <point x="606" y="519"/>
      <point x="606" y="374"/>
      <point x="605" y="256" type="curve" smooth="yes"/>
      <point x="606" y="218"/>
      <point x="617" y="197"/>
      <point x="649" y="197" type="curve" smooth="yes"/>
      <point x="709" y="197"/>
      <point x="837" y="385"/>
      <point x="847" y="513" type="curve" smooth="yes"/>
      <point x="852" y="569"/>
      <point x="840" y="587"/>
      <point x="807" y="623" type="curve" smooth="yes"/>
      <point x="770" y="661"/>
      <point x="749" y="697"/>
      <point x="753" y="748" type="curve" smooth="yes"/>
      <point x="761" y="857"/>
      <point x="851" y="949"/>
      <point x="976" y="949" type="curve" smooth="yes"/>
      <point x="1094" y="949"/>
      <point x="1158" y="878"/>
      <point x="1148" y="740" type="curve" smooth="yes"/>
      <point x="1119" y="399"/>
      <point x="718" y="-24"/>
      <point x="369" y="-24" type="curve" smooth="yes"/>
      <point x="260" y="-24"/>
      <point x="203" y="23"/>
    </contour>
  </outline>
</glyph>
<glyph name="w.alt" format="2">
  <advance width="1735"/>
  <outline>
    <contour>
      <point x="208" y="131" type="curve" smooth="yes"/>
      <point x="209" y="35"/>
      <point x="255" y="-24"/>
      <point x="347" y="-24" type="curve" smooth="yes"/>
      <point x="553" y="-24"/>
      <point x="733" y="65"/>
      <point x="838" y="275" type="curve"/>
      <point x="810" y="291" type="line"/>
      <point x="812" y="246"/>
      <point x="818" y="178"/>
      <point x="831" y="114" type="curve" smooth="yes"/>
      <point x="846" y="17"/>
      <point x="895" y="-24"/>
      <point x="983" y="-24" type="curve" smooth="yes"/>
      <point x="1327" y="-24"/>
      <point x="1692" y="375"/>
      <point x="1725" y="693" type="curve" smooth="yes"/>
      <point x="1744" y="880"/>
      <point x="1679" y="951"/>
      <point x="1557" y="951" type="curve" smooth="yes"/>
      <point x="1437" y="951"/>
      <point x="1349" y="859"/>
      <point x="1339" y="768" type="curve" smooth="yes"/>
      <point x="1332" y="698"/>
      <point x="1352" y="662"/>
      <point x="1389" y="625" type="curve" smooth="yes"/>
      <point x="1418" y="587"/>
      <point x="1433" y="570"/>
      <point x="1428" y="514" type="curve" smooth="yes"/>
      <point x="1412" y="323"/>
      <point x="1298" y="183"/>
      <point x="1245" y="183" type="curve" smooth="yes"/>
      <point x="1215" y="183"/>
      <point x="1201" y="205"/>
      <point x="1199" y="257" type="curve" smooth="yes"/>
      <point x="1198" y="424"/>
      <point x="1195" y="640"/>
      <point x="1193" y="764" type="curve" smooth="yes"/>
      <point x="1190" y="884"/>
      <point x="1149" y="944"/>
      <point x="1032" y="944" type="curve" smooth="yes"/>
      <point x="886" y="944"/>
      <point x="766" y="859"/>
      <point x="758" y="760" type="curve" smooth="yes"/>
      <point x="755" y="721"/>
      <point x="771" y="691"/>
      <point x="787" y="660" type="curve" smooth="yes"/>
      <point x="809" y="600"/>
      <point x="815" y="576"/>
      <point x="814" y="495" type="curve" smooth="yes"/>
      <point x="813" y="300"/>
      <point x="697" y="187"/>
      <point x="647" y="187" type="curve" smooth="yes"/>
      <point x="616" y="187"/>
      <point x="608" y="207"/>
      <point x="607" y="245" type="curve" smooth="yes"/>
      <point x="608" y="368"/>
      <point x="607" y="513"/>
      <point x="612" y="729" type="curve" smooth="yes"/>
      <point x="612" y="876"/>
      <point x="574" y="942"/>
      <point x="457" y="941" type="curve" smooth="yes"/>
      <point x="284" y="940"/>
      <point x="67" y="784"/>
      <point x="33" y="638" type="curve" smooth="yes"/>
      <point x="24" y="595"/>
      <point x="41" y="564"/>
      <point x="77" y="555" type="curve" smooth="yes"/>
      <point x="98" y="549"/>
      <point x="123" y="558"/>
      <point x="132" y="572" type="curve" smooth="yes"/>
      <point x="151" y="609"/>
      <point x="171" y="636"/>
      <point x="191" y="636" type="curve" smooth="yes"/>
      <point x="212" y="636"/>
      <point x="215" y="611"/>
      <point x="214" y="564" type="curve" smooth="yes"/>
      <point x="210" y="406"/>
      <point x="208" y="265"/>
    </contour>
  </outline>
</glyph>
